<svg width="112" height="111" viewBox="0 0 112 111" fill="none" xmlns="http://www.w3.org/2000/svg">
<path fill-rule="evenodd" clip-rule="evenodd" d="M46.1931 84.7442C45.5954 84.7442 45.1258 84.2746 45.1258 83.6769C45.1258 83.0792 45.5954 82.6096 46.1931 82.6096C46.7908 82.6096 47.2604 83.0792 47.2604 83.6769C47.2604 84.2319 46.7908 84.7442 46.1931 84.7442ZM42.6069 81.2008C42.0092 81.2008 41.5396 80.7312 41.5396 80.1335C41.5396 79.5358 42.0092 79.0662 42.6069 79.0662C43.2046 79.0662 43.6742 79.5358 43.6742 80.1335C43.7169 80.7312 43.2046 81.2008 42.6069 81.2008ZM39.1062 56.3538C38.5085 56.3538 38.0388 55.8842 38.0388 55.2865C38.0388 54.6888 38.5085 54.2192 39.1062 54.2192C39.7038 54.2192 40.1735 54.6888 40.1735 55.2865C40.1308 55.8842 39.6612 56.3538 39.1062 56.3538ZM39.1062 63.4408C38.5085 63.4408 38.0388 62.9712 38.0388 62.3735C38.0388 61.7758 38.5085 61.3062 39.1062 61.3062C39.7038 61.3062 40.1735 61.7758 40.1735 62.3735C40.1308 62.9712 39.6612 63.4408 39.1062 63.4408ZM39.1062 70.5277C38.5085 70.5277 38.0388 70.0581 38.0388 69.4604C38.0388 68.8627 38.5085 68.3931 39.1062 68.3931C39.7038 68.3931 40.1735 68.8627 40.1735 69.4604C40.1308 70.0581 39.6612 70.5277 39.1062 70.5277ZM39.1062 77.6573C38.5085 77.6573 38.0388 77.1877 38.0388 76.59C38.0388 75.9923 38.5085 75.5227 39.1062 75.5227C39.7038 75.5227 40.1735 75.9923 40.1735 76.59C40.1308 77.145 39.6612 77.6573 39.1062 77.6573ZM39.1062 84.7442C38.5085 84.7442 38.0388 84.2746 38.0388 83.6769C38.0388 83.0792 38.5085 82.6096 39.1062 82.6096C39.7038 82.6096 40.1735 83.0792 40.1735 83.6769C40.1308 84.2319 39.6612 84.7442 39.1062 84.7442ZM35.52 60.1108C34.8369 60.1108 34.2819 59.5558 34.2819 58.8727C34.2819 58.1896 34.8369 57.6346 35.52 57.6346C36.2031 57.6346 36.7581 58.1896 36.7581 58.8727C36.8008 59.5131 36.2031 60.1108 35.52 60.1108ZM35.52 67.1977C34.8369 67.1977 34.2819 66.6427 34.2819 65.9596C34.2819 65.2765 34.8369 64.7215 35.52 64.7215C36.2031 64.7215 36.7581 65.2765 36.7581 65.9596C36.8008 66.6427 36.2031 67.1977 35.52 67.1977ZM35.52 74.2846C34.8369 74.2846 34.2819 73.7296 34.2819 73.0465C34.2819 72.3635 34.8369 71.8085 35.52 71.8085C36.2031 71.8085 36.7581 72.3635 36.7581 73.0465C36.8008 73.7296 36.2031 74.2846 35.52 74.2846ZM35.52 81.3715C34.8369 81.3715 34.2819 80.8165 34.2819 80.1335C34.2819 79.4504 34.8369 78.8954 35.52 78.8954C36.2031 78.8954 36.7581 79.4504 36.7581 80.1335C36.8008 80.8165 36.2031 81.3715 35.52 81.3715ZM31.9765 56.8662C31.1227 56.8662 30.3969 56.1404 30.3969 55.2865C30.3969 54.4327 31.08 53.7069 31.9765 53.7069C32.8731 53.7069 33.5562 54.4327 33.5562 55.2865C33.5562 56.1404 32.8304 56.8662 31.9765 56.8662ZM30.3969 62.3735C30.3969 61.5196 31.08 60.7938 31.9765 60.7938C32.8731 60.7938 33.5562 61.5196 33.5562 62.3735C33.5562 63.2273 32.8731 63.9531 31.9765 63.9531C31.1227 63.9531 30.3969 63.2273 30.3969 62.3735ZM31.9765 71.04C31.1227 71.04 30.3969 70.3142 30.3969 69.4604C30.3969 68.6065 31.08 67.8808 31.9765 67.8808C32.8731 67.8808 33.5562 68.6065 33.5562 69.4604C33.5562 70.3569 32.8304 71.04 31.9765 71.04ZM30.3969 76.59C30.3969 75.7361 31.08 75.0104 31.9765 75.0104C32.8731 75.0104 33.5562 75.7361 33.5562 76.59C33.5562 77.4438 32.8731 78.1696 31.9765 78.1696C31.1227 78.1269 30.3969 77.4438 30.3969 76.59ZM31.9765 85.2138C31.1227 85.2138 30.3969 84.4881 30.3969 83.6342C30.3969 82.7804 31.08 82.0546 31.9765 82.0546C32.8731 82.0546 33.5562 82.7804 33.5562 83.6342C33.5562 84.5308 32.8304 85.2138 31.9765 85.2138ZM28.4331 60.495C27.5365 60.495 26.7681 59.7265 26.7681 58.83C26.7681 57.9335 27.5365 57.165 28.4331 57.165C29.3723 57.165 30.0981 57.9335 30.0981 58.83C30.0981 59.7692 29.3723 60.495 28.4331 60.495ZM28.4331 67.6246C27.5365 67.6246 26.7681 66.8562 26.7681 65.9596C26.7681 65.0631 27.5365 64.2946 28.4331 64.2946C29.3723 64.2946 30.0981 65.0631 30.0981 65.9596C30.0981 66.8562 29.3723 67.6246 28.4331 67.6246ZM28.4331 74.7115C27.5365 74.7115 26.7681 73.9431 26.7681 73.0465C26.7681 72.15 27.5365 71.3815 28.4331 71.3815C29.3723 71.3815 30.0981 72.15 30.0981 73.0465C30.0981 73.9431 29.3723 74.7115 28.4331 74.7115ZM28.4331 81.7985C27.5365 81.7985 26.7681 81.03 26.7681 80.1335C26.7681 79.2369 27.5365 78.4685 28.4331 78.4685C29.3723 78.4685 30.0981 79.2369 30.0981 80.1335C30.0981 81.03 29.3723 81.7985 28.4331 81.7985ZM24.8896 85.7262C23.7369 85.7262 22.7977 84.7869 22.7977 83.6342C22.7977 82.4815 23.7369 81.5423 24.8896 81.5423C26.0423 81.5423 26.9815 82.4815 26.9815 83.6342C26.9388 84.8296 26.0423 85.7262 24.8896 85.7262ZM19.0408 80.1335C19.0408 78.8527 20.0654 77.8281 21.3462 77.8281C22.6269 77.8281 23.6515 78.8527 23.6515 80.1335C23.6515 81.4142 22.6269 82.4388 21.3462 82.4388C20.0654 82.4388 19.0408 81.3715 19.0408 80.1335ZM19.0408 73.0038C19.0408 71.7231 20.0654 70.6985 21.3462 70.6985C22.6269 70.6985 23.6515 71.7231 23.6515 73.0038C23.6515 74.2846 22.6269 75.3092 21.3462 75.3092C20.0654 75.3092 19.0408 74.2846 19.0408 73.0038ZM19.0408 65.9169C19.0408 64.6361 20.0654 63.6115 21.3462 63.6115C22.6269 63.6115 23.6515 64.6361 23.6515 65.9169C23.6515 67.1977 22.6269 68.2223 21.3462 68.2223C20.0654 68.2223 19.0408 67.1977 19.0408 65.9169ZM19.0408 58.83C19.0408 57.5492 20.0654 56.5246 21.3462 56.5246C22.6269 56.5246 23.6515 57.5492 23.6515 58.83C23.6515 60.1108 22.6269 61.1354 21.3462 61.1354C20.0654 61.1354 19.0408 60.1108 19.0408 58.83ZM24.8896 64.4654C23.7369 64.4654 22.7977 63.5262 22.7977 62.3735C22.7977 61.2208 23.7369 60.2815 24.8896 60.2815C26.0423 60.2815 26.9815 61.2208 26.9815 62.3735C26.9388 63.5262 26.0423 64.4654 24.8896 64.4654ZM26.9388 76.59C26.9388 77.7427 25.9996 78.6819 24.8469 78.6819C23.6942 78.6819 22.755 77.7427 22.755 76.59C22.755 75.4373 23.6942 74.4981 24.8469 74.4981C26.0423 74.4981 26.9388 75.4373 26.9388 76.59ZM24.8896 71.5523C23.7369 71.5523 22.7977 70.6131 22.7977 69.4604C22.7977 68.3077 23.7369 67.3685 24.8896 67.3685C26.0423 67.3685 26.9815 68.3077 26.9815 69.4604C26.9388 70.6131 26.0423 71.5523 24.8896 71.5523ZM24.8896 53.1946C26.0423 53.1946 26.9815 54.1338 26.9815 55.2865C26.9815 56.4392 26.0423 57.3785 24.8896 57.3785C23.7369 57.3785 22.7977 56.4392 22.7977 55.2865C22.7977 54.1338 23.7369 53.1946 24.8896 53.1946ZM75.3092 79.4504C67.6673 87.0923 55.2865 87.0923 47.6446 79.4504C40.0027 71.8512 40.0027 59.4704 47.6446 51.8285L88.5438 10.9719C79.365 4.09846 67.8808 0 55.4146 0C25.9996 0 1.92115 22.8831 0 51.7858H3.58615C5.55 51.7858 7.08692 53.3654 7.08692 55.3292V55.3719H7.12962C7.30038 55.3719 7.47115 55.3719 7.64192 55.4146V55.3292C7.64192 53.6215 9.00808 52.2554 10.7158 52.2554C12.4235 52.2554 13.7896 53.6215 13.7896 55.3292C13.7896 55.6281 13.7042 55.8842 13.6615 56.1831C13.875 56.1404 14.0885 56.0977 14.3019 56.0977C14.7715 56.0977 15.1985 56.2258 15.5827 56.4392C15.4119 56.0977 15.3265 55.7135 15.3265 55.3292C15.3265 53.9204 16.4365 52.8104 17.8454 52.8104C19.2542 52.8104 20.3642 53.9204 20.3642 55.3292C20.3642 56.6954 19.2542 57.8481 17.8454 57.8481C17.4612 57.8481 17.0769 57.72 16.7354 57.5919C16.9488 57.9761 17.0769 58.4031 17.0769 58.8727C17.0769 59.3423 16.9488 59.7692 16.7354 60.1535C17.0769 59.9827 17.4185 59.8973 17.8454 59.8973C19.2542 59.8973 20.3642 61.0073 20.3642 62.4162C20.3642 63.7823 19.2542 64.935 17.8454 64.935C17.4612 64.935 17.0769 64.8069 16.7354 64.6788C16.9488 65.0631 17.0769 65.49 17.0769 65.9596C17.0769 66.4292 16.9488 66.8562 16.7354 67.2404C17.0769 67.0696 17.4185 66.9842 17.8454 66.9842C19.2542 66.9842 20.3642 68.0942 20.3642 69.5031C20.3642 70.8692 19.2542 72.0219 17.8454 72.0219C17.4612 72.0219 17.0769 71.8938 16.7354 71.7658C16.9488 72.15 17.0769 72.5769 17.0769 73.0465C17.0769 73.5162 16.9488 73.9431 16.7354 74.3273C17.0769 74.1565 17.4185 74.0712 17.8454 74.0712C19.2542 74.0712 20.3642 75.1811 20.3642 76.59C20.3642 77.9561 19.2542 79.1088 17.8454 79.1088C17.4612 79.1088 17.0769 78.9808 16.7354 78.8527C16.9488 79.2369 17.0769 79.6638 17.0769 80.1335C17.0769 80.6031 16.9488 81.03 16.7354 81.4142C17.0769 81.2435 17.4185 81.1581 17.8454 81.1581C19.2542 81.1581 20.3642 82.2681 20.3642 83.6769C20.3642 85.0431 19.2542 86.1958 17.8454 86.1958C16.4365 86.1958 15.3265 85.0431 15.3265 83.6769C15.3265 83.2927 15.4119 82.9085 15.5827 82.5669C15.1985 82.7804 14.7715 82.9085 14.3019 82.9085C14.0885 82.9085 13.875 82.8658 13.6615 82.8231C13.7469 83.0792 13.7896 83.3781 13.7896 83.6769C13.7896 85.3419 12.4235 86.7081 10.7158 86.7081H9.52038C19.5104 101.352 36.3738 111 55.4573 111C86.1531 111 111.043 86.1531 111.043 55.5C111.043 51.8285 110.658 48.285 110.018 44.8696L75.3092 79.4504Z" fill="white"/>
<path fill-rule="evenodd" clip-rule="evenodd" d="M10.673 73.5162C10.9719 73.5162 11.2707 73.5589 11.5269 73.6443C11.4842 73.4308 11.4415 73.2601 11.4415 73.0039C11.4415 72.7904 11.4842 72.577 11.5269 72.3635C11.2707 72.4489 10.9719 72.4916 10.673 72.4916H10.5876C10.6303 72.6624 10.6303 72.8331 10.6303 73.0039C10.6303 73.1747 10.6303 73.3454 10.5876 73.5162H10.673Z" fill="white"/>
<path fill-rule="evenodd" clip-rule="evenodd" d="M10.673 66.4293C10.9719 66.4293 11.2707 66.472 11.5269 66.5574C11.4842 66.3439 11.4415 66.1731 11.4415 65.917C11.4415 65.7035 11.4842 65.4901 11.5269 65.2766C11.2707 65.362 10.9719 65.4047 10.673 65.4047H10.5876C10.6303 65.5755 10.6303 65.7462 10.6303 65.917C10.6303 66.0878 10.6303 66.2585 10.5876 66.4293H10.673Z" fill="white"/>
<path fill-rule="evenodd" clip-rule="evenodd" d="M10.673 80.6031C10.9719 80.6031 11.2707 80.6458 11.5269 80.7312C11.4842 80.5177 11.4415 80.347 11.4415 80.0908C11.4415 79.8774 11.4842 79.6639 11.5269 79.4504C11.2707 79.5358 10.9719 79.5785 10.673 79.5785H10.5876C10.6303 79.7493 10.6303 79.9201 10.6303 80.0908C10.6303 80.2616 10.6303 80.4324 10.5876 80.6031H10.673Z" fill="white"/>
<path fill-rule="evenodd" clip-rule="evenodd" d="M10.673 59.3424C10.9719 59.3424 11.2707 59.3851 11.5269 59.4705C11.4842 59.257 11.4415 59.0862 11.4415 58.8301C11.4415 58.6166 11.4842 58.4032 11.5269 58.1897C11.2707 58.2751 10.9719 58.3178 10.673 58.3178H10.5876C10.6303 58.4885 10.6303 58.6593 10.6303 58.8301C10.6303 59.0009 10.6303 59.1716 10.5876 59.3424H10.673Z" fill="white"/>
<path fill-rule="evenodd" clip-rule="evenodd" d="M14.2166 70.2288C14.6862 70.2288 15.1131 70.3569 15.4973 70.5703C15.3266 70.2288 15.2412 69.8446 15.2412 69.4603C15.2412 69.0761 15.3266 68.6919 15.4973 68.3503C15.1131 68.5638 14.6862 68.6919 14.2166 68.6919C14.0031 68.6919 13.7896 68.6492 13.5762 68.6065C13.6616 68.8626 13.7042 69.1615 13.7042 69.4603C13.7042 69.7592 13.6189 70.0153 13.5762 70.3142C13.7896 70.2715 14.0031 70.2288 14.2166 70.2288Z" fill="white"/>
<path fill-rule="evenodd" clip-rule="evenodd" d="M14.2166 75.8215C14.0031 75.8215 13.7896 75.7788 13.5762 75.7361C13.6616 75.9923 13.7042 76.2911 13.7042 76.59C13.7042 76.8888 13.6189 77.145 13.5762 77.4438C13.7896 77.4011 14.0031 77.3584 14.2166 77.3584C14.6862 77.3584 15.1131 77.4865 15.4973 77.7C15.3266 77.3584 15.2412 76.9742 15.2412 76.59C15.2412 76.2057 15.3266 75.8215 15.4973 75.48C15.1131 75.6934 14.6862 75.8215 14.2166 75.8215Z" fill="white"/>
<path fill-rule="evenodd" clip-rule="evenodd" d="M72.6623 54.518C80.1335 61.9465 74.5408 68.6919 72.6623 70.5703C67.8381 75.3519 66.2585 76.4192 65.7889 76.6326C64.7216 76.3338 61.1354 74.0284 56.8662 70.058C52.5543 66.0022 50.6331 63.0138 50.6331 61.9038C50.6331 61.9038 50.932 60.1961 56.5673 54.518C59.2996 51.7857 61.9893 50.3769 64.5935 50.3769C67.1977 50.3769 69.93 51.7857 72.6623 54.518ZM54.3473 52.298C47.4739 59.1288 47.4739 61.0926 47.4739 61.8611C47.4739 64.9349 51.4016 69.2469 54.7316 72.3634C55.0731 72.6622 62.715 79.7919 65.8743 79.7919C66.8989 79.7919 68.3931 79.2369 74.8823 72.7903C82.4389 65.2338 79.8346 57.2503 74.8823 52.298C68.1796 45.5953 61.05 45.5953 54.3473 52.298Z" fill="white"/>
<path fill-rule="evenodd" clip-rule="evenodd" d="M14.2166 63.1419C14.6862 63.1419 15.1131 63.27 15.4973 63.4834C15.3266 63.1419 15.2412 62.7577 15.2412 62.3734C15.2412 61.9892 15.3266 61.605 15.4973 61.2634C15.1131 61.4769 14.6862 61.605 14.2166 61.605C14.0031 61.605 13.7896 61.5623 13.5762 61.5196C13.6616 61.7757 13.7042 62.0746 13.7042 62.3734C13.7042 62.6723 13.6189 62.9284 13.5762 63.2273C13.7896 63.1846 14.0031 63.1419 14.2166 63.1419Z" fill="white"/>
</svg>
