<svg width="111" height="111" viewBox="0 0 111 111" fill="none" xmlns="http://www.w3.org/2000/svg">
<path fill-rule="evenodd" clip-rule="evenodd" d="M109.975 44.895L74.4981 80.3587L53.6642 59.5329L47.2604 53.1315C51.6577 48.7359 72.5342 27.8674 89.0988 11.3091C79.7492 4.22491 68.1369 0 55.5 0C24.8469 0 0 24.8374 0 55.4787C0 61.3679 0.939233 67.0012 2.60423 72.3356H44.3573L56.7381 84.7117C56.9088 84.8824 57.0796 85.0104 57.2504 85.1811H8.62384C18.4858 100.672 35.7762 111 55.5 111C86.1531 111 111 86.1626 111 55.5213C111 51.8512 110.658 48.3091 109.975 44.895ZM48.7973 72.3356L45.1258 68.6655C44.8269 68.3668 44.5708 68.0681 44.3146 67.7693C44.2719 67.684 44.1865 67.5986 44.1438 67.5559C43.9731 67.2999 43.8023 67.0865 43.6315 66.8304C43.5889 66.7451 43.5462 66.7024 43.5035 66.6171C43.1619 65.9769 42.9058 65.3795 42.735 64.7393C42.735 64.654 42.6923 64.6113 42.6923 64.526C42.6069 64.2699 42.5642 63.9712 42.5215 63.7151V63.5871C42.4788 63.2457 42.4362 62.9043 42.4362 62.6055C42.4362 62.2215 42.4362 61.8374 42.4788 61.4533C42.4788 61.3679 42.4788 61.2826 42.5215 61.2399C42.5642 60.9412 42.6069 60.6425 42.6496 60.3864C42.6496 60.301 42.6923 60.2157 42.6923 60.1303C42.7777 59.8743 42.8204 59.5756 42.9058 59.3195C42.9485 59.2341 42.9485 59.1915 42.9912 59.1061C43.2046 58.466 43.4608 57.8685 43.7169 57.3564C43.7596 57.2711 43.8023 57.1857 43.845 57.1003C43.9304 56.9296 44.0158 56.8016 44.1011 56.6309C44.1438 56.5456 44.1865 56.4602 44.2719 56.3749C44.3573 56.2468 44.4427 56.1188 44.5281 55.9908C44.5708 55.9481 44.6135 55.8627 44.6562 55.8201C44.7842 55.6494 44.8696 55.5213 44.9977 55.3933L45.8515 56.2468L72.2354 82.6205C71.2108 83.474 68.3931 85.1811 65.1912 85.1811C65.1912 85.1811 65.1912 85.1811 65.1485 85.1811H64.9777H64.8496C62.8858 85.0957 60.8365 84.4129 58.9154 82.5352L48.7973 72.3356Z" fill="white"/>
</svg>
