<svg width="111" height="111" viewBox="0 0 111 111" fill="none" xmlns="http://www.w3.org/2000/svg">
<path fill-rule="evenodd" clip-rule="evenodd" d="M3.84521 78.2726C4.31519 79.3407 4.82789 80.3661 5.38332 81.3915H32.0438C31.7447 80.7934 30.6338 78.2726 22.3452 78.2726H3.84521Z" fill="white"/>
<path fill-rule="evenodd" clip-rule="evenodd" d="M40.1188 22.5591L43.3232 19.3547C43.9641 18.7139 45.0322 18.7139 45.7158 19.3547L67.292 40.9309H56.1835L40.1616 24.909C39.4352 24.2681 39.4352 23.2 40.1188 22.5591ZM94.0806 67.6768L95.576 69.1722C96.6441 71.1375 98.3958 74.9828 98.524 75.2818C98.7804 75.7946 98.994 76.7772 98.3104 77.4181C97.6695 78.1017 96.6868 77.8881 96.1314 77.6317C95.8323 77.5036 91.9016 75.7091 89.9363 74.641L89.5517 74.2565L89.4663 74.171L86.3901 71.1375C86.7319 70.1121 86.9028 69.0013 86.9028 67.805C86.9028 66.865 86.8173 66.0532 86.6464 65.3269C87.8427 64.9424 88.8254 64.2161 89.5517 63.1907L94.0806 67.6768ZM17.8164 44.7334C22.1316 44.7334 25.6778 43.5799 29.4803 40.5891C33.2401 37.5983 37.1281 34.4794 41.7851 34.4794H45.1177L51.6119 40.9309H49.9029C49.0484 40.9309 48.3221 41.6145 48.3221 42.5117C48.3221 43.3662 49.0057 44.0926 49.9029 44.0926H88.1845C90.9617 44.0926 91.9871 46.1006 91.9871 47.8096C91.9871 49.6895 90.7908 51.6976 88.1845 51.6976H70.1546C69.3001 51.6976 68.5737 52.3812 68.5737 53.2784C68.5737 54.1757 69.2573 54.8593 70.1546 54.8593H86.6464C87.2446 55.2865 88.1418 57.8073 87.5009 60.1572C86.9028 62.5071 85.2365 62.5071 84.6811 62.5071H70.1118C69.2573 62.5071 68.531 63.2334 68.531 64.0879C68.531 64.9424 69.2146 65.6687 70.1118 65.6687H83.4421C83.8266 66.5659 83.9975 69.1722 83.1857 70.9666C82.5448 72.2484 81.7758 72.2484 81.4767 72.2484H67.5056C66.6511 72.2484 65.9248 72.9747 65.9248 73.8292C65.9248 74.6837 66.6084 75.41 67.5056 75.41H78.3151C78.3578 76.9909 78.1869 79.2126 77.1187 80.4516C76.5206 81.1352 75.7088 81.477 74.598 81.477H103.822C107.924 73.7437 110.231 64.8997 110.231 55.5429C110.231 24.8663 85.322 0.000283088 54.6026 0.000283088C27.5577 -0.085167 4.99883 19.1838 0 44.7334H17.8164Z" fill="white"/>
<path fill-rule="evenodd" clip-rule="evenodd" d="M7.6051 85.1514C17.4746 100.703 34.821 111 54.6027 111C74.3844 111 91.7308 100.703 101.6 85.1514H7.6051Z" fill="white"/>
</svg>
