<svg width="113" height="7" viewBox="0 0 113 7" fill="none" xmlns="http://www.w3.org/2000/svg">
<path d="M112.383 3.49999L107.383 0.613239L107.383 6.38674L112.383 3.49999ZM0.289185 4L3.40289 4L3.40289 3L0.289185 3L0.289185 4ZM9.6303 4L15.8577 4L15.8577 3L9.6303 3L9.6303 4ZM22.0851 4L28.3125 4L28.3125 3L22.0851 3L22.0851 4ZM34.5399 4L40.7673 4L40.7673 3L34.5399 3L34.5399 4ZM46.9947 4L53.2221 4L53.2221 3L46.9947 3L46.9947 4ZM59.4495 3.99999L65.677 3.99999L65.677 2.99999L59.4495 2.99999L59.4495 3.99999ZM71.9044 3.99999L78.1318 3.99999L78.1318 2.99999L71.9044 2.99999L71.9044 3.99999ZM84.3592 3.99999L90.5866 3.99999L90.5866 2.99999L84.3592 2.99999L84.3592 3.99999ZM96.814 3.99999L103.041 3.99999L103.041 2.99999L96.814 2.99999L96.814 3.99999Z" fill="white"/>
</svg>
