<svg width="77" height="45" viewBox="0 0 77 45" fill="none" xmlns="http://www.w3.org/2000/svg">
<path d="M66.6555 20.1488V35.3595L48.5503 22.976H56.7164V21.6724H46.6456L42.593 18.9045H56.7063V17.601H40.6882L35.9365 14.3507L40.3336 11.3035C40.3336 11.3035 46.7672 6.08935 55.8755 8.47633C64.9838 10.8633 66.6757 17.9819 66.6757 20.1573L66.6555 20.1488Z" fill="#E81E2A"/>
<path d="M35.9876 14.3421L28.085 9.11108V19.5816L35.9876 14.3421Z" fill="#E81E2A"/>
<path d="M10.334 24.3048V9.09412L28.4391 21.4776H20.2731V22.7812H30.3439L34.3965 25.549H20.2832V26.8526H36.3012L41.0529 30.1029L36.6558 33.1501C36.6558 33.1501 30.2223 38.3642 21.114 35.9773C12.0057 33.5903 10.3137 26.4717 10.3137 24.2963L10.334 24.3048Z" fill="#E81E2A"/>
<path d="M41.0024 30.1112L48.9051 35.3422V24.8717L41.0024 30.1112Z" fill="#E81E2A"/>
<path d="M25.7847 16.2382C27.0437 16.2382 28.0643 15.3855 28.0643 14.3337C28.0643 13.2819 27.0437 12.4292 25.7847 12.4292C24.5257 12.4292 23.5051 13.2819 23.5051 14.3337C23.5051 15.3855 24.5257 16.2382 25.7847 16.2382Z" fill="#E81E2A"/>
<path d="M74.7103 2.12789V42.3256H2.27961V2.12789H74.7204M77 0.223389H0V44.2301H76.9899V0.223389H77Z" fill="#E81E2A"/>
</svg>
