<svg width="660" height="79" viewBox="0 0 660 79" fill="none" xmlns="http://www.w3.org/2000/svg">
<path d="M10.913 66.384C10.8597 66.4747 10.8037 66.5413 10.745 66.584C10.6864 66.6267 10.6117 66.648 10.521 66.648C10.425 66.648 10.3157 66.6053 10.193 66.52C10.0704 66.4293 9.91569 66.3307 9.72902 66.224C9.54769 66.112 9.32902 66.0133 9.07302 65.928C8.81702 65.8373 8.51035 65.792 8.15302 65.792C7.81702 65.792 7.52102 65.8373 7.26502 65.928C7.01435 66.0133 6.80369 66.1333 6.63302 66.288C6.46235 66.4373 6.33169 66.616 6.24102 66.824C6.15569 67.0267 6.11302 67.248 6.11302 67.488C6.11302 67.7973 6.19035 68.0533 6.34502 68.256C6.50502 68.4587 6.71302 68.632 6.96902 68.776C7.22502 68.92 7.51569 69.0453 7.84102 69.152C8.16635 69.2587 8.49969 69.3707 8.84102 69.488C9.18235 69.6 9.51569 69.7307 9.84102 69.88C10.1664 70.0293 10.457 70.2187 10.713 70.448C10.969 70.672 11.1744 70.9493 11.329 71.28C11.489 71.6053 11.569 72.0053 11.569 72.48C11.569 72.9867 11.481 73.4613 11.305 73.904C11.1344 74.3467 10.8837 74.7333 10.553 75.064C10.2224 75.3947 9.81435 75.656 9.32902 75.848C8.84902 76.0347 8.30235 76.128 7.68902 76.128C7.32102 76.128 6.96369 76.0907 6.61702 76.016C6.27035 75.9467 5.94235 75.848 5.63302 75.72C5.32369 75.5867 5.03302 75.4293 4.76102 75.248C4.49435 75.0613 4.25435 74.8533 4.04102 74.624L4.52902 73.808C4.57702 73.744 4.63302 73.6907 4.69702 73.648C4.76635 73.6053 4.84369 73.584 4.92902 73.584C5.04102 73.584 5.16902 73.6427 5.31302 73.76C5.46235 73.8773 5.64369 74.008 5.85702 74.152C6.07569 74.2907 6.33435 74.4187 6.63302 74.536C6.93702 74.6533 7.30502 74.712 7.73702 74.712C8.08902 74.712 8.40369 74.6667 8.68102 74.576C8.95835 74.48 9.19035 74.3467 9.37702 74.176C9.56902 74 9.71569 73.7893 9.81702 73.544C9.91835 73.2987 9.96902 73.0267 9.96902 72.728C9.96902 72.392 9.89169 72.1173 9.73702 71.904C9.58235 71.6907 9.37702 71.512 9.12102 71.368C8.86502 71.224 8.57435 71.1013 8.24902 71C7.92369 70.8987 7.59035 70.7947 7.24902 70.688C6.90769 70.576 6.57435 70.448 6.24902 70.304C5.92369 70.16 5.63302 69.9733 5.37702 69.744C5.12102 69.5093 4.91569 69.2187 4.76102 68.872C4.60635 68.52 4.52902 68.088 4.52902 67.576C4.52902 67.1653 4.60902 66.768 4.76902 66.384C4.92902 66 5.16102 65.6613 5.46502 65.368C5.77435 65.0693 6.15302 64.832 6.60102 64.656C7.04902 64.4747 7.56102 64.384 8.13702 64.384C8.78235 64.384 9.37435 64.488 9.91302 64.696C10.457 64.8987 10.929 65.192 11.329 65.576L10.913 66.384ZM19.0013 69.392C18.9533 69.4507 18.9053 69.4987 18.8573 69.536C18.8146 69.568 18.7506 69.584 18.6653 69.584C18.5799 69.584 18.4893 69.552 18.3933 69.488C18.3026 69.4187 18.1853 69.3467 18.0413 69.272C17.9026 69.192 17.7319 69.12 17.5293 69.056C17.3319 68.9867 17.0866 68.952 16.7933 68.952C16.4093 68.952 16.0706 69.0213 15.7773 69.16C15.4839 69.2987 15.2386 69.496 15.0413 69.752C14.8493 70.008 14.7026 70.32 14.6013 70.688C14.4999 71.056 14.4493 71.4693 14.4493 71.928C14.4493 72.4027 14.5026 72.8267 14.6093 73.2C14.7159 73.568 14.8679 73.88 15.0653 74.136C15.2626 74.3867 15.5026 74.5787 15.7853 74.712C16.0679 74.84 16.3826 74.904 16.7293 74.904C17.0653 74.904 17.3426 74.864 17.5613 74.784C17.7799 74.6987 17.9613 74.608 18.1053 74.512C18.2493 74.416 18.3693 74.328 18.4653 74.248C18.5613 74.1627 18.6599 74.12 18.7613 74.12C18.8893 74.12 18.9879 74.168 19.0573 74.264L19.5053 74.84C19.3186 75.0693 19.1079 75.264 18.8733 75.424C18.6439 75.584 18.3986 75.7147 18.1373 75.816C17.8759 75.9173 17.6013 75.992 17.3133 76.04C17.0306 76.088 16.7426 76.112 16.4493 76.112C15.9426 76.112 15.4679 76.0187 15.0253 75.832C14.5879 75.6453 14.2066 75.3733 13.8813 75.016C13.5613 74.6587 13.3079 74.2213 13.1213 73.704C12.9346 73.1813 12.8413 72.5893 12.8413 71.928C12.8413 71.3253 12.9239 70.768 13.0893 70.256C13.2599 69.744 13.5079 69.304 13.8333 68.936C14.1639 68.5627 14.5693 68.272 15.0493 68.064C15.5293 67.8507 16.0786 67.744 16.6973 67.744C17.2786 67.744 17.7906 67.8373 18.2333 68.024C18.6759 68.2107 19.0706 68.4747 19.4173 68.816L19.0013 69.392ZM22.5215 68.904C22.8629 68.5573 23.2389 68.2773 23.6495 68.064C24.0655 67.8507 24.5429 67.744 25.0815 67.744C25.5295 67.744 25.9215 67.8187 26.2575 67.968C26.5989 68.1173 26.8842 68.328 27.1135 68.6C27.3429 68.8667 27.5162 69.1893 27.6335 69.568C27.7509 69.9467 27.8095 70.3653 27.8095 70.824V76H26.2415V70.824C26.2415 70.2427 26.1082 69.792 25.8415 69.472C25.5749 69.1467 25.1669 68.984 24.6175 68.984C24.2175 68.984 23.8415 69.08 23.4895 69.272C23.1429 69.4587 22.8202 69.7147 22.5215 70.04V76H20.9615V64.192H22.5215V68.904ZM35.2986 71.032C35.2986 70.7227 35.2533 70.4373 35.1626 70.176C35.0773 69.9147 34.9493 69.688 34.7786 69.496C34.608 69.304 34.4 69.1547 34.1546 69.048C33.9093 68.9413 33.6266 68.888 33.3066 68.888C32.6506 68.888 32.1333 69.0773 31.7546 69.456C31.3813 69.8347 31.144 70.36 31.0426 71.032H35.2986ZM36.5866 74.84C36.3946 75.064 36.1733 75.2587 35.9226 75.424C35.672 75.584 35.4053 75.7147 35.1226 75.816C34.84 75.9173 34.5466 75.992 34.2426 76.04C33.944 76.088 33.648 76.112 33.3546 76.112C32.7946 76.112 32.2746 76.0187 31.7946 75.832C31.32 75.64 30.9066 75.3627 30.5546 75C30.208 74.632 29.936 74.1787 29.7386 73.64C29.5466 73.096 29.4506 72.472 29.4506 71.768C29.4506 71.2027 29.5386 70.6773 29.7146 70.192C29.8906 69.7013 30.1413 69.2747 30.4666 68.912C30.7973 68.5493 31.2 68.264 31.6746 68.056C32.1493 67.848 32.6826 67.744 33.2746 67.744C33.7706 67.744 34.2266 67.8267 34.6426 67.992C35.064 68.152 35.4266 68.3867 35.7306 68.696C36.0346 69.0053 36.272 69.3867 36.4426 69.84C36.6186 70.2933 36.7066 70.8107 36.7066 71.392C36.7066 71.632 36.68 71.7947 36.6266 71.88C36.5733 71.96 36.4746 72 36.3306 72H31.0026C31.0186 72.4853 31.088 72.9093 31.2106 73.272C31.3333 73.6293 31.5013 73.928 31.7146 74.168C31.9333 74.408 32.192 74.5867 32.4906 74.704C32.7893 74.8213 33.1226 74.88 33.4906 74.88C33.8373 74.88 34.136 74.84 34.3866 74.76C34.6426 74.68 34.8613 74.5947 35.0426 74.504C35.2293 74.408 35.384 74.32 35.5066 74.24C35.6346 74.16 35.7466 74.12 35.8426 74.12C35.9706 74.12 36.0693 74.168 36.1386 74.264L36.5866 74.84ZM43.6234 69.84C43.3674 69.504 43.0901 69.2693 42.7914 69.136C42.4981 69.0027 42.1674 68.936 41.7994 68.936C41.0847 68.936 40.5301 69.1947 40.1354 69.712C39.7461 70.224 39.5514 70.9733 39.5514 71.96C39.5514 72.4773 39.5941 72.92 39.6794 73.288C39.7701 73.6507 39.8981 73.9493 40.0634 74.184C40.2341 74.4133 40.4421 74.584 40.6874 74.696C40.9327 74.8027 41.2101 74.856 41.5194 74.856C41.9727 74.856 42.3647 74.7547 42.6954 74.552C43.0261 74.3493 43.3354 74.064 43.6234 73.696V69.84ZM45.1914 64.192V76H44.2474C44.0287 76 43.8927 75.896 43.8394 75.688L43.7034 74.752C43.3567 75.1627 42.9621 75.4933 42.5194 75.744C42.0821 75.9893 41.5754 76.112 40.9994 76.112C40.5354 76.112 40.1141 76.0213 39.7354 75.84C39.3621 75.6587 39.0421 75.3947 38.7754 75.048C38.5087 74.696 38.3034 74.2613 38.1594 73.744C38.0154 73.2267 37.9434 72.632 37.9434 71.96C37.9434 71.3573 38.0234 70.7973 38.1834 70.28C38.3434 69.7627 38.5754 69.3147 38.8794 68.936C39.1834 68.5573 39.5514 68.2613 39.9834 68.048C40.4154 67.8293 40.9034 67.72 41.4474 67.72C41.9381 67.72 42.3541 67.8 42.6954 67.96C43.0421 68.12 43.3514 68.3467 43.6234 68.64V64.192H45.1914ZM54.1278 67.872V76H53.1918C52.9784 76 52.8398 75.896 52.7758 75.688L52.6638 74.872C52.4878 75.0587 52.3038 75.2293 52.1118 75.384C51.9198 75.5387 51.7144 75.672 51.4958 75.784C51.2771 75.8907 51.0451 75.9733 50.7998 76.032C50.5544 76.096 50.2904 76.128 50.0078 76.128C49.5598 76.128 49.1651 76.0533 48.8238 75.904C48.4878 75.7547 48.2051 75.5467 47.9758 75.28C47.7464 75.008 47.5731 74.6827 47.4558 74.304C47.3384 73.9253 47.2798 73.5067 47.2798 73.048V67.872H48.8478V73.048C48.8478 73.6293 48.9811 74.0827 49.2478 74.408C49.5144 74.728 49.9224 74.888 50.4718 74.888C50.8718 74.888 51.2451 74.7947 51.5918 74.608C51.9384 74.416 52.2638 74.1547 52.5678 73.824V67.872H54.1278ZM57.9053 64.192V76H56.3373V64.192H57.9053ZM65.5174 71.032C65.5174 70.7227 65.4721 70.4373 65.3814 70.176C65.2961 69.9147 65.1681 69.688 64.9974 69.496C64.8267 69.304 64.6187 69.1547 64.3734 69.048C64.1281 68.9413 63.8454 68.888 63.5254 68.888C62.8694 68.888 62.3521 69.0773 61.9734 69.456C61.6001 69.8347 61.3627 70.36 61.2614 71.032H65.5174ZM66.8054 74.84C66.6134 75.064 66.3921 75.2587 66.1414 75.424C65.8907 75.584 65.6241 75.7147 65.3414 75.816C65.0587 75.9173 64.7654 75.992 64.4614 76.04C64.1627 76.088 63.8667 76.112 63.5734 76.112C63.0134 76.112 62.4934 76.0187 62.0134 75.832C61.5387 75.64 61.1254 75.3627 60.7734 75C60.4267 74.632 60.1547 74.1787 59.9574 73.64C59.7654 73.096 59.6694 72.472 59.6694 71.768C59.6694 71.2027 59.7574 70.6773 59.9334 70.192C60.1094 69.7013 60.3601 69.2747 60.6854 68.912C61.0161 68.5493 61.4187 68.264 61.8934 68.056C62.3681 67.848 62.9014 67.744 63.4934 67.744C63.9894 67.744 64.4454 67.8267 64.8614 67.992C65.2827 68.152 65.6454 68.3867 65.9494 68.696C66.2534 69.0053 66.4907 69.3867 66.6614 69.84C66.8374 70.2933 66.9254 70.8107 66.9254 71.392C66.9254 71.632 66.8987 71.7947 66.8454 71.88C66.7921 71.96 66.6934 72 66.5494 72H61.2214C61.2374 72.4853 61.3067 72.9093 61.4294 73.272C61.5521 73.6293 61.7201 73.928 61.9334 74.168C62.1521 74.408 62.4107 74.5867 62.7094 74.704C63.0081 74.8213 63.3414 74.88 63.7094 74.88C64.0561 74.88 64.3547 74.84 64.6054 74.76C64.8614 74.68 65.0801 74.5947 65.2614 74.504C65.4481 74.408 65.6027 74.32 65.7254 74.24C65.8534 74.16 65.9654 74.12 66.0614 74.12C66.1894 74.12 66.2881 74.168 66.3574 74.264L66.8054 74.84Z" fill="white"/>
<path d="M60.5509 25C60.5509 38.5306 49.573 49.5 36.0301 49.5C22.4872 49.5 11.5093 38.5306 11.5093 25C11.5093 11.4694 22.4872 0.5 36.0301 0.5C49.573 0.5 60.5509 11.4694 60.5509 25Z" stroke="#E81E2A"/>
<path d="M204.648 73.536C204.744 73.536 204.827 73.5733 204.896 73.648L205.568 74.384C205.099 74.9387 204.525 75.368 203.848 75.672C203.176 75.976 202.365 76.128 201.416 76.128C200.584 76.128 199.829 75.984 199.152 75.696C198.48 75.408 197.904 75.0053 197.424 74.488C196.949 73.9707 196.581 73.352 196.32 72.632C196.059 71.912 195.928 71.12 195.928 70.256C195.928 69.392 196.064 68.6 196.336 67.88C196.613 67.16 197 66.5413 197.496 66.024C197.992 65.5067 198.584 65.104 199.272 64.816C199.965 64.528 200.731 64.384 201.568 64.384C202.384 64.384 203.109 64.5173 203.744 64.784C204.379 65.0507 204.931 65.4053 205.4 65.848L204.84 66.64C204.803 66.6987 204.755 66.7467 204.696 66.784C204.643 66.8213 204.571 66.84 204.48 66.84C204.379 66.84 204.259 66.7893 204.12 66.688C203.987 66.5867 203.808 66.4747 203.584 66.352C203.365 66.224 203.093 66.1093 202.768 66.008C202.443 65.9067 202.037 65.856 201.552 65.856C200.981 65.856 200.459 65.9573 199.984 66.16C199.509 66.3573 199.099 66.6453 198.752 67.024C198.411 67.3973 198.144 67.8587 197.952 68.408C197.765 68.952 197.672 69.568 197.672 70.256C197.672 70.9547 197.771 71.576 197.968 72.12C198.165 72.664 198.437 73.1253 198.784 73.504C199.131 73.8827 199.539 74.1707 200.008 74.368C200.477 74.5653 200.984 74.664 201.528 74.664C201.859 74.664 202.155 74.6453 202.416 74.608C202.683 74.5653 202.925 74.504 203.144 74.424C203.368 74.344 203.579 74.2427 203.776 74.12C203.973 73.992 204.168 73.84 204.36 73.664C204.403 73.6267 204.448 73.5973 204.496 73.576C204.544 73.5493 204.595 73.536 204.648 73.536ZM210.268 67.744C210.865 67.744 211.404 67.8427 211.884 68.04C212.369 68.232 212.78 68.512 213.116 68.88C213.457 69.2427 213.719 69.6827 213.9 70.2C214.081 70.712 214.172 71.288 214.172 71.928C214.172 72.568 214.081 73.1467 213.9 73.664C213.719 74.1813 213.457 74.6213 213.116 74.984C212.78 75.3467 212.369 75.6267 211.884 75.824C211.404 76.016 210.865 76.112 210.268 76.112C209.665 76.112 209.121 76.016 208.636 75.824C208.156 75.6267 207.745 75.3467 207.404 74.984C207.063 74.6213 206.799 74.1813 206.612 73.664C206.431 73.1467 206.34 72.568 206.34 71.928C206.34 71.288 206.431 70.712 206.612 70.2C206.799 69.6827 207.063 69.2427 207.404 68.88C207.745 68.512 208.156 68.232 208.636 68.04C209.121 67.8427 209.665 67.744 210.268 67.744ZM210.268 74.896C211.036 74.896 211.609 74.6373 211.988 74.12C212.367 73.6027 212.556 72.8747 212.556 71.936C212.556 70.9973 212.367 70.2693 211.988 69.752C211.609 69.2293 211.036 68.968 210.268 68.968C209.489 68.968 208.908 69.2293 208.524 69.752C208.145 70.2693 207.956 70.9973 207.956 71.936C207.956 72.8747 208.145 73.6027 208.524 74.12C208.908 74.6373 209.489 74.896 210.268 74.896ZM217.377 69C217.553 68.8133 217.737 68.6427 217.929 68.488C218.121 68.3333 218.324 68.2027 218.537 68.096C218.756 67.984 218.988 67.8987 219.233 67.84C219.484 67.776 219.751 67.744 220.033 67.744C220.481 67.744 220.873 67.8187 221.209 67.968C221.551 68.1173 221.836 68.328 222.065 68.6C222.295 68.8667 222.468 69.1893 222.585 69.568C222.703 69.9467 222.761 70.3653 222.761 70.824V76H221.193V70.824C221.193 70.2427 221.06 69.792 220.793 69.472C220.527 69.1467 220.119 68.984 219.569 68.984C219.169 68.984 218.793 69.08 218.441 69.272C218.095 69.4587 217.772 69.7147 217.473 70.04V76H215.913V67.872H216.849C217.068 67.872 217.204 67.976 217.257 68.184L217.377 69ZM229.658 69.272C229.616 69.3413 229.57 69.392 229.522 69.424C229.474 69.4507 229.413 69.464 229.338 69.464C229.253 69.464 229.157 69.4347 229.05 69.376C228.949 69.3173 228.824 69.2533 228.674 69.184C228.53 69.1147 228.36 69.0507 228.162 68.992C227.965 68.9333 227.73 68.904 227.458 68.904C227.234 68.904 227.029 68.9333 226.842 68.992C226.661 69.0453 226.506 69.1227 226.378 69.224C226.25 69.32 226.152 69.4373 226.082 69.576C226.013 69.7093 225.978 69.8533 225.978 70.008C225.978 70.2107 226.037 70.3787 226.154 70.512C226.277 70.6453 226.434 70.76 226.626 70.856C226.824 70.952 227.045 71.04 227.29 71.12C227.541 71.1947 227.794 71.2747 228.05 71.36C228.312 71.4453 228.565 71.544 228.81 71.656C229.061 71.7627 229.282 71.8987 229.474 72.064C229.672 72.224 229.829 72.4187 229.946 72.648C230.069 72.8773 230.13 73.1573 230.13 73.488C230.13 73.8667 230.061 74.2187 229.922 74.544C229.789 74.864 229.589 75.1413 229.322 75.376C229.061 75.6107 228.736 75.7947 228.346 75.928C227.957 76.0613 227.512 76.128 227.01 76.128C226.45 76.128 225.933 76.0347 225.458 75.848C224.984 75.6613 224.586 75.424 224.266 75.136L224.634 74.536C224.677 74.4613 224.73 74.4053 224.794 74.368C224.858 74.3253 224.944 74.304 225.05 74.304C225.152 74.304 225.256 74.3413 225.362 74.416C225.469 74.4907 225.597 74.5733 225.746 74.664C225.896 74.7493 226.077 74.8293 226.29 74.904C226.504 74.9733 226.77 75.008 227.09 75.008C227.357 75.008 227.589 74.976 227.786 74.912C227.984 74.8427 228.146 74.752 228.274 74.64C228.408 74.5227 228.506 74.3893 228.57 74.24C228.634 74.0907 228.666 73.9333 228.666 73.768C228.666 73.5547 228.605 73.3787 228.482 73.24C228.365 73.096 228.208 72.9733 228.01 72.872C227.818 72.7707 227.597 72.6827 227.346 72.608C227.096 72.5333 226.84 72.4533 226.578 72.368C226.317 72.2827 226.061 72.184 225.81 72.072C225.56 71.96 225.336 71.8187 225.138 71.648C224.946 71.4773 224.789 71.2693 224.666 71.024C224.549 70.7787 224.49 70.48 224.49 70.128C224.49 69.8133 224.554 69.512 224.682 69.224C224.816 68.936 225.005 68.6827 225.25 68.464C225.501 68.2453 225.808 68.072 226.17 67.944C226.538 67.8107 226.957 67.744 227.426 67.744C227.965 67.744 228.45 67.8293 228.882 68C229.32 68.1707 229.693 68.4053 230.002 68.704L229.658 69.272ZM238.58 67.872V76H237.644C237.43 76 237.292 75.896 237.228 75.688L237.116 74.872C236.94 75.0587 236.756 75.2293 236.564 75.384C236.372 75.5387 236.166 75.672 235.948 75.784C235.729 75.8907 235.497 75.9733 235.252 76.032C235.006 76.096 234.742 76.128 234.46 76.128C234.012 76.128 233.617 76.0533 233.276 75.904C232.94 75.7547 232.657 75.5467 232.428 75.28C232.198 75.008 232.025 74.6827 231.908 74.304C231.79 73.9253 231.732 73.5067 231.732 73.048V67.872H233.3V73.048C233.3 73.6293 233.433 74.0827 233.7 74.408C233.966 74.728 234.374 74.888 234.924 74.888C235.324 74.888 235.697 74.7947 236.044 74.608C236.39 74.416 236.716 74.1547 237.02 73.824V67.872H238.58ZM242.357 64.192V76H240.789V64.192H242.357ZM247.129 76.128C246.473 76.128 245.966 75.944 245.609 75.576C245.257 75.208 245.081 74.6827 245.081 74V69.136H244.137C244.046 69.136 243.969 69.1093 243.905 69.056C243.846 68.9973 243.817 68.912 243.817 68.8V68.168L245.137 67.984L245.489 65.56C245.51 65.4693 245.55 65.4 245.609 65.352C245.673 65.2987 245.753 65.272 245.849 65.272H246.641V68H248.945V69.136H246.641V73.896C246.641 74.216 246.718 74.456 246.873 74.616C247.033 74.7707 247.236 74.848 247.481 74.848C247.625 74.848 247.748 74.8293 247.849 74.792C247.956 74.7547 248.046 74.7147 248.121 74.672C248.196 74.624 248.26 74.5813 248.313 74.544C248.366 74.5067 248.414 74.488 248.457 74.488C248.51 74.488 248.55 74.5013 248.577 74.528C248.609 74.5493 248.641 74.5867 248.673 74.64L249.137 75.392C248.881 75.6267 248.577 75.808 248.225 75.936C247.873 76.064 247.508 76.128 247.129 76.128ZM254.75 72.392C254.115 72.4133 253.577 72.464 253.134 72.544C252.691 72.6187 252.331 72.72 252.054 72.848C251.777 72.976 251.577 73.128 251.454 73.304C251.331 73.4747 251.27 73.6667 251.27 73.88C251.27 74.0827 251.302 74.2587 251.366 74.408C251.435 74.552 251.526 74.672 251.638 74.768C251.755 74.8587 251.891 74.9253 252.046 74.968C252.201 75.0107 252.369 75.032 252.55 75.032C252.79 75.032 253.009 75.008 253.206 74.96C253.409 74.912 253.598 74.8453 253.774 74.76C253.95 74.6693 254.118 74.56 254.278 74.432C254.438 74.304 254.595 74.1573 254.75 73.992V72.392ZM250.174 69.008C250.627 68.576 251.118 68.2533 251.646 68.04C252.179 67.8267 252.763 67.72 253.398 67.72C253.862 67.72 254.273 67.7973 254.63 67.952C254.987 68.1013 255.289 68.312 255.534 68.584C255.779 68.856 255.963 69.1813 256.086 69.56C256.214 69.9387 256.278 70.3573 256.278 70.816V76H255.582C255.427 76 255.31 75.976 255.23 75.928C255.15 75.8747 255.086 75.7787 255.038 75.64L254.87 74.928C254.662 75.12 254.457 75.2907 254.254 75.44C254.051 75.584 253.838 75.7093 253.614 75.816C253.395 75.9173 253.161 75.9947 252.91 76.048C252.659 76.1013 252.382 76.128 252.078 76.128C251.758 76.128 251.457 76.0853 251.174 76C250.897 75.9093 250.654 75.7733 250.446 75.592C250.238 75.4107 250.073 75.184 249.95 74.912C249.833 74.64 249.774 74.3227 249.774 73.96C249.774 73.64 249.859 73.3333 250.03 73.04C250.206 72.7413 250.489 72.4747 250.878 72.24C251.273 72.0053 251.785 71.8133 252.414 71.664C253.049 71.5147 253.827 71.4293 254.75 71.408V70.816C254.75 70.2027 254.619 69.744 254.358 69.44C254.097 69.136 253.713 68.984 253.206 68.984C252.865 68.984 252.577 69.0267 252.342 69.112C252.113 69.1973 251.913 69.2933 251.742 69.4C251.577 69.5013 251.43 69.5947 251.302 69.68C251.179 69.7653 251.051 69.808 250.918 69.808C250.811 69.808 250.718 69.7787 250.638 69.72C250.563 69.6613 250.502 69.592 250.454 69.512L250.174 69.008ZM265.961 76H264.393V69.136H260.313V73.896C260.313 74.216 260.39 74.456 260.545 74.616C260.705 74.7707 260.908 74.848 261.153 74.848C261.297 74.848 261.42 74.8293 261.521 74.792C261.628 74.7547 261.718 74.7147 261.793 74.672C261.868 74.624 261.932 74.5813 261.985 74.544C262.038 74.5067 262.086 74.488 262.129 74.488C262.182 74.488 262.222 74.5013 262.249 74.528C262.281 74.5493 262.313 74.5867 262.345 74.64L262.809 75.392C262.553 75.6267 262.249 75.808 261.897 75.936C261.545 76.064 261.18 76.128 260.801 76.128C260.145 76.128 259.638 75.944 259.281 75.576C258.929 75.208 258.753 74.6827 258.753 74V69.136H257.809C257.718 69.136 257.641 69.1093 257.577 69.056C257.518 68.9973 257.489 68.912 257.489 68.8V68.168L258.817 67.984L259.161 65.56C259.182 65.4693 259.222 65.4 259.281 65.352C259.345 65.2987 259.425 65.272 259.521 65.272H260.313V68H265.961V76ZM266.313 65.312C266.313 65.456 266.284 65.5947 266.225 65.728C266.166 65.856 266.086 65.9707 265.985 66.072C265.889 66.168 265.774 66.2453 265.641 66.304C265.508 66.3573 265.369 66.384 265.225 66.384C265.081 66.384 264.945 66.3573 264.817 66.304C264.689 66.2453 264.574 66.168 264.473 66.072C264.377 65.9707 264.3 65.856 264.241 65.728C264.188 65.5947 264.161 65.456 264.161 65.312C264.161 65.1627 264.188 65.0213 264.241 64.888C264.3 64.7547 264.377 64.64 264.473 64.544C264.574 64.4427 264.689 64.3653 264.817 64.312C264.945 64.2533 265.081 64.224 265.225 64.224C265.369 64.224 265.508 64.2533 265.641 64.312C265.774 64.3653 265.889 64.4427 265.985 64.544C266.086 64.64 266.166 64.7547 266.225 64.888C266.284 65.0213 266.313 65.1627 266.313 65.312ZM271.69 67.744C272.287 67.744 272.826 67.8427 273.306 68.04C273.791 68.232 274.202 68.512 274.538 68.88C274.879 69.2427 275.14 69.6827 275.322 70.2C275.503 70.712 275.594 71.288 275.594 71.928C275.594 72.568 275.503 73.1467 275.322 73.664C275.14 74.1813 274.879 74.6213 274.538 74.984C274.202 75.3467 273.791 75.6267 273.306 75.824C272.826 76.016 272.287 76.112 271.69 76.112C271.087 76.112 270.543 76.016 270.058 75.824C269.578 75.6267 269.167 75.3467 268.826 74.984C268.484 74.6213 268.22 74.1813 268.034 73.664C267.852 73.1467 267.762 72.568 267.762 71.928C267.762 71.288 267.852 70.712 268.034 70.2C268.22 69.6827 268.484 69.2427 268.826 68.88C269.167 68.512 269.578 68.232 270.058 68.04C270.543 67.8427 271.087 67.744 271.69 67.744ZM271.69 74.896C272.458 74.896 273.031 74.6373 273.41 74.12C273.788 73.6027 273.978 72.8747 273.978 71.936C273.978 70.9973 273.788 70.2693 273.41 69.752C273.031 69.2293 272.458 68.968 271.69 68.968C270.911 68.968 270.33 69.2293 269.946 69.752C269.567 70.2693 269.378 70.9973 269.378 71.936C269.378 72.8747 269.567 73.6027 269.946 74.12C270.33 74.6373 270.911 74.896 271.69 74.896ZM278.799 69C278.975 68.8133 279.159 68.6427 279.351 68.488C279.543 68.3333 279.746 68.2027 279.959 68.096C280.178 67.984 280.41 67.8987 280.655 67.84C280.906 67.776 281.172 67.744 281.455 67.744C281.903 67.744 282.295 67.8187 282.631 67.968C282.972 68.1173 283.258 68.328 283.487 68.6C283.716 68.8667 283.89 69.1893 284.007 69.568C284.124 69.9467 284.183 70.3653 284.183 70.824V76H282.615V70.824C282.615 70.2427 282.482 69.792 282.215 69.472C281.948 69.1467 281.54 68.984 280.991 68.984C280.591 68.984 280.215 69.08 279.863 69.272C279.516 69.4587 279.194 69.7147 278.895 70.04V76H277.335V67.872H278.271C278.49 67.872 278.626 67.976 278.679 68.184L278.799 69Z" fill="white"/>
<path d="M264.721 25C264.721 38.5306 253.743 49.5 240.2 49.5C226.657 49.5 215.679 38.5306 215.679 25C215.679 11.4694 226.657 0.5 240.2 0.5C253.743 0.5 264.721 11.4694 264.721 25Z" stroke="#E81E2A"/>
<path d="M418.739 74.616L418.731 76H411.611V64.512H418.731V65.896H413.323V69.536H417.675V70.872H413.323V74.616H418.739ZM425.193 69.272C425.15 69.3413 425.105 69.392 425.057 69.424C425.009 69.4507 424.947 69.464 424.873 69.464C424.787 69.464 424.691 69.4347 424.585 69.376C424.483 69.3173 424.358 69.2533 424.209 69.184C424.065 69.1147 423.894 69.0507 423.697 68.992C423.499 68.9333 423.265 68.904 422.993 68.904C422.769 68.904 422.563 68.9333 422.377 68.992C422.195 69.0453 422.041 69.1227 421.913 69.224C421.785 69.32 421.686 69.4373 421.617 69.576C421.547 69.7093 421.513 69.8533 421.513 70.008C421.513 70.2107 421.571 70.3787 421.689 70.512C421.811 70.6453 421.969 70.76 422.161 70.856C422.358 70.952 422.579 71.04 422.825 71.12C423.075 71.1947 423.329 71.2747 423.585 71.36C423.846 71.4453 424.099 71.544 424.345 71.656C424.595 71.7627 424.817 71.8987 425.009 72.064C425.206 72.224 425.363 72.4187 425.481 72.648C425.603 72.8773 425.665 73.1573 425.665 73.488C425.665 73.8667 425.595 74.2187 425.457 74.544C425.323 74.864 425.123 75.1413 424.857 75.376C424.595 75.6107 424.27 75.7947 423.881 75.928C423.491 76.0613 423.046 76.128 422.545 76.128C421.985 76.128 421.467 76.0347 420.993 75.848C420.518 75.6613 420.121 75.424 419.801 75.136L420.169 74.536C420.211 74.4613 420.265 74.4053 420.329 74.368C420.393 74.3253 420.478 74.304 420.585 74.304C420.686 74.304 420.79 74.3413 420.897 74.416C421.003 74.4907 421.131 74.5733 421.281 74.664C421.43 74.7493 421.611 74.8293 421.825 74.904C422.038 74.9733 422.305 75.008 422.625 75.008C422.891 75.008 423.123 74.976 423.321 74.912C423.518 74.8427 423.681 74.752 423.809 74.64C423.942 74.5227 424.041 74.3893 424.105 74.24C424.169 74.0907 424.201 73.9333 424.201 73.768C424.201 73.5547 424.139 73.3787 424.017 73.24C423.899 73.096 423.742 72.9733 423.545 72.872C423.353 72.7707 423.131 72.6827 422.881 72.608C422.63 72.5333 422.374 72.4533 422.113 72.368C421.851 72.2827 421.595 72.184 421.345 72.072C421.094 71.96 420.87 71.8187 420.673 71.648C420.481 71.4773 420.323 71.2693 420.201 71.024C420.083 70.7787 420.025 70.48 420.025 70.128C420.025 69.8133 420.089 69.512 420.217 69.224C420.35 68.936 420.539 68.6827 420.785 68.464C421.035 68.2453 421.342 68.072 421.705 67.944C422.073 67.8107 422.491 67.744 422.961 67.744C423.499 67.744 423.985 67.8293 424.417 68C424.854 68.1707 425.227 68.4053 425.537 68.704L425.193 69.272ZM435.058 76H433.49V69.136H429.41V73.896C429.41 74.216 429.487 74.456 429.642 74.616C429.802 74.7707 430.004 74.848 430.25 74.848C430.394 74.848 430.516 74.8293 430.618 74.792C430.724 74.7547 430.815 74.7147 430.89 74.672C430.964 74.624 431.028 74.5813 431.082 74.544C431.135 74.5067 431.183 74.488 431.226 74.488C431.279 74.488 431.319 74.5013 431.346 74.528C431.378 74.5493 431.41 74.5867 431.442 74.64L431.906 75.392C431.65 75.6267 431.346 75.808 430.994 75.936C430.642 76.064 430.276 76.128 429.898 76.128C429.242 76.128 428.735 75.944 428.378 75.576C428.026 75.208 427.85 74.6827 427.85 74V69.136H426.906C426.815 69.136 426.738 69.1093 426.674 69.056C426.615 68.9973 426.586 68.912 426.586 68.8V68.168L427.914 67.984L428.258 65.56C428.279 65.4693 428.319 65.4 428.378 65.352C428.442 65.2987 428.522 65.272 428.618 65.272H429.41V68H435.058V76ZM435.41 65.312C435.41 65.456 435.38 65.5947 435.322 65.728C435.263 65.856 435.183 65.9707 435.082 66.072C434.986 66.168 434.871 66.2453 434.738 66.304C434.604 66.3573 434.466 66.384 434.322 66.384C434.178 66.384 434.042 66.3573 433.914 66.304C433.786 66.2453 433.671 66.168 433.57 66.072C433.474 65.9707 433.396 65.856 433.338 65.728C433.284 65.5947 433.258 65.456 433.258 65.312C433.258 65.1627 433.284 65.0213 433.338 64.888C433.396 64.7547 433.474 64.64 433.57 64.544C433.671 64.4427 433.786 64.3653 433.914 64.312C434.042 64.2533 434.178 64.224 434.322 64.224C434.466 64.224 434.604 64.2533 434.738 64.312C434.871 64.3653 434.986 64.4427 435.082 64.544C435.183 64.64 435.263 64.7547 435.322 64.888C435.38 65.0213 435.41 65.1627 435.41 65.312ZM437.322 76V67.872H438.258C438.477 67.872 438.613 67.976 438.666 68.184L438.778 68.96C439.077 68.6027 439.408 68.312 439.77 68.088C440.138 67.8587 440.568 67.744 441.058 67.744C441.597 67.744 442.034 67.8933 442.37 68.192C442.706 68.4853 442.952 68.8853 443.106 69.392C443.224 69.104 443.376 68.856 443.562 68.648C443.749 68.44 443.957 68.2693 444.186 68.136C444.416 68.0027 444.658 67.904 444.914 67.84C445.176 67.776 445.44 67.744 445.706 67.744C446.138 67.744 446.522 67.8133 446.858 67.952C447.2 68.0853 447.488 68.2827 447.722 68.544C447.957 68.8053 448.136 69.128 448.258 69.512C448.381 69.896 448.442 70.3333 448.442 70.824V76H446.874V70.824C446.874 70.216 446.741 69.7573 446.474 69.448C446.213 69.1387 445.829 68.984 445.322 68.984C445.098 68.984 444.885 69.024 444.682 69.104C444.48 69.1787 444.301 69.2933 444.146 69.448C443.997 69.6027 443.877 69.7947 443.786 70.024C443.701 70.2533 443.658 70.52 443.658 70.824V76H442.09V70.824C442.09 70.1947 441.965 69.7307 441.714 69.432C441.464 69.1333 441.096 68.984 440.61 68.984C440.274 68.984 439.962 69.072 439.674 69.248C439.386 69.424 439.122 69.664 438.882 69.968V76H437.322ZM454.909 72.392C454.275 72.4133 453.736 72.464 453.293 72.544C452.851 72.6187 452.491 72.72 452.213 72.848C451.936 72.976 451.736 73.128 451.613 73.304C451.491 73.4747 451.429 73.6667 451.429 73.88C451.429 74.0827 451.461 74.2587 451.525 74.408C451.595 74.552 451.685 74.672 451.797 74.768C451.915 74.8587 452.051 74.9253 452.205 74.968C452.36 75.0107 452.528 75.032 452.709 75.032C452.949 75.032 453.168 75.008 453.365 74.96C453.568 74.912 453.757 74.8453 453.933 74.76C454.109 74.6693 454.277 74.56 454.437 74.432C454.597 74.304 454.755 74.1573 454.909 73.992V72.392ZM450.333 69.008C450.787 68.576 451.277 68.2533 451.805 68.04C452.339 67.8267 452.923 67.72 453.557 67.72C454.021 67.72 454.432 67.7973 454.789 67.952C455.147 68.1013 455.448 68.312 455.693 68.584C455.939 68.856 456.123 69.1813 456.245 69.56C456.373 69.9387 456.437 70.3573 456.437 70.816V76H455.741C455.587 76 455.469 75.976 455.389 75.928C455.309 75.8747 455.245 75.7787 455.197 75.64L455.029 74.928C454.821 75.12 454.616 75.2907 454.413 75.44C454.211 75.584 453.997 75.7093 453.773 75.816C453.555 75.9173 453.32 75.9947 453.069 76.048C452.819 76.1013 452.541 76.128 452.237 76.128C451.917 76.128 451.616 76.0853 451.333 76C451.056 75.9093 450.813 75.7733 450.605 75.592C450.397 75.4107 450.232 75.184 450.109 74.912C449.992 74.64 449.933 74.3227 449.933 73.96C449.933 73.64 450.019 73.3333 450.189 73.04C450.365 72.7413 450.648 72.4747 451.037 72.24C451.432 72.0053 451.944 71.8133 452.573 71.664C453.208 71.5147 453.987 71.4293 454.909 71.408V70.816C454.909 70.2027 454.779 69.744 454.517 69.44C454.256 69.136 453.872 68.984 453.365 68.984C453.024 68.984 452.736 69.0267 452.501 69.112C452.272 69.1973 452.072 69.2933 451.901 69.4C451.736 69.5013 451.589 69.5947 451.461 69.68C451.339 69.7653 451.211 69.808 451.077 69.808C450.971 69.808 450.877 69.7787 450.797 69.72C450.723 69.6613 450.661 69.592 450.613 69.512L450.333 69.008ZM460.96 76.128C460.304 76.128 459.798 75.944 459.44 75.576C459.088 75.208 458.912 74.6827 458.912 74V69.136H457.968C457.878 69.136 457.8 69.1093 457.736 69.056C457.678 68.9973 457.648 68.912 457.648 68.8V68.168L458.968 67.984L459.32 65.56C459.342 65.4693 459.382 65.4 459.44 65.352C459.504 65.2987 459.584 65.272 459.68 65.272H460.472V68H462.776V69.136H460.472V73.896C460.472 74.216 460.55 74.456 460.704 74.616C460.864 74.7707 461.067 74.848 461.312 74.848C461.456 74.848 461.579 74.8293 461.68 74.792C461.787 74.7547 461.878 74.7147 461.952 74.672C462.027 74.624 462.091 74.5813 462.144 74.544C462.198 74.5067 462.246 74.488 462.288 74.488C462.342 74.488 462.382 74.5013 462.408 74.528C462.44 74.5493 462.472 74.5867 462.504 74.64L462.968 75.392C462.712 75.6267 462.408 75.808 462.056 75.936C461.704 76.064 461.339 76.128 460.96 76.128ZM469.55 71.032C469.55 70.7227 469.505 70.4373 469.414 70.176C469.329 69.9147 469.201 69.688 469.03 69.496C468.86 69.304 468.652 69.1547 468.406 69.048C468.161 68.9413 467.878 68.888 467.558 68.888C466.902 68.888 466.385 69.0773 466.006 69.456C465.633 69.8347 465.396 70.36 465.294 71.032H469.55ZM470.838 74.84C470.646 75.064 470.425 75.2587 470.174 75.424C469.924 75.584 469.657 75.7147 469.374 75.816C469.092 75.9173 468.798 75.992 468.494 76.04C468.196 76.088 467.9 76.112 467.606 76.112C467.046 76.112 466.526 76.0187 466.046 75.832C465.572 75.64 465.158 75.3627 464.806 75C464.46 74.632 464.188 74.1787 463.99 73.64C463.798 73.096 463.702 72.472 463.702 71.768C463.702 71.2027 463.79 70.6773 463.966 70.192C464.142 69.7013 464.393 69.2747 464.718 68.912C465.049 68.5493 465.452 68.264 465.926 68.056C466.401 67.848 466.934 67.744 467.526 67.744C468.022 67.744 468.478 67.8267 468.894 67.992C469.316 68.152 469.678 68.3867 469.982 68.696C470.286 69.0053 470.524 69.3867 470.694 69.84C470.87 70.2933 470.958 70.8107 470.958 71.392C470.958 71.632 470.932 71.7947 470.878 71.88C470.825 71.96 470.726 72 470.582 72H465.254C465.27 72.4853 465.34 72.9093 465.462 73.272C465.585 73.6293 465.753 73.928 465.966 74.168C466.185 74.408 466.444 74.5867 466.742 74.704C467.041 74.8213 467.374 74.88 467.742 74.88C468.089 74.88 468.388 74.84 468.638 74.76C468.894 74.68 469.113 74.5947 469.294 74.504C469.481 74.408 469.636 74.32 469.758 74.24C469.886 74.16 469.998 74.12 470.094 74.12C470.222 74.12 470.321 74.168 470.39 74.264L470.838 74.84Z" fill="white"/>
<path d="M465.888 25C465.888 38.5306 454.91 49.5 441.368 49.5C427.825 49.5 416.847 38.5306 416.847 25C416.847 11.4694 427.825 0.5 441.368 0.5C454.91 0.5 465.888 11.4694 465.888 25Z" stroke="#E81E2A"/>
<path d="M609.994 70.256C609.994 71.1147 609.855 71.896 609.578 72.6C609.306 73.304 608.919 73.9093 608.418 74.416C607.917 74.9173 607.317 75.3067 606.618 75.584C605.919 75.8613 605.143 76 604.29 76H599.97V64.512H604.29C605.143 64.512 605.919 64.6507 606.618 64.928C607.317 65.2053 607.917 65.5973 608.418 66.104C608.919 66.6053 609.306 67.2107 609.578 67.92C609.855 68.624 609.994 69.4027 609.994 70.256ZM608.25 70.256C608.25 69.5733 608.157 68.9627 607.97 68.424C607.783 67.88 607.517 67.4213 607.17 67.048C606.829 66.6693 606.413 66.3813 605.922 66.184C605.437 65.9867 604.893 65.888 604.29 65.888H601.682V74.624H604.29C604.893 74.624 605.437 74.5253 605.922 74.328C606.413 74.1307 606.829 73.8453 607.17 73.472C607.517 73.0933 607.783 72.6347 607.97 72.096C608.157 71.5573 608.25 70.944 608.25 70.256ZM617.097 71.032C617.097 70.7227 617.051 70.4373 616.961 70.176C616.875 69.9147 616.747 69.688 616.577 69.496C616.406 69.304 616.198 69.1547 615.953 69.048C615.707 68.9413 615.425 68.888 615.105 68.888C614.449 68.888 613.931 69.0773 613.553 69.456C613.179 69.8347 612.942 70.36 612.841 71.032H617.097ZM618.385 74.84C618.193 75.064 617.971 75.2587 617.721 75.424C617.47 75.584 617.203 75.7147 616.921 75.816C616.638 75.9173 616.345 75.992 616.041 76.04C615.742 76.088 615.446 76.112 615.153 76.112C614.593 76.112 614.073 76.0187 613.593 75.832C613.118 75.64 612.705 75.3627 612.353 75C612.006 74.632 611.734 74.1787 611.537 73.64C611.345 73.096 611.249 72.472 611.249 71.768C611.249 71.2027 611.337 70.6773 611.513 70.192C611.689 69.7013 611.939 69.2747 612.265 68.912C612.595 68.5493 612.998 68.264 613.473 68.056C613.947 67.848 614.481 67.744 615.073 67.744C615.569 67.744 616.025 67.8267 616.441 67.992C616.862 68.152 617.225 68.3867 617.529 68.696C617.833 69.0053 618.07 69.3867 618.241 69.84C618.417 70.2933 618.505 70.8107 618.505 71.392C618.505 71.632 618.478 71.7947 618.425 71.88C618.371 71.96 618.273 72 618.129 72H612.801C612.817 72.4853 612.886 72.9093 613.009 73.272C613.131 73.6293 613.299 73.928 613.513 74.168C613.731 74.408 613.99 74.5867 614.289 74.704C614.587 74.8213 614.921 74.88 615.289 74.88C615.635 74.88 615.934 74.84 616.185 74.76C616.441 74.68 616.659 74.5947 616.841 74.504C617.027 74.408 617.182 74.32 617.305 74.24C617.433 74.16 617.545 74.12 617.641 74.12C617.769 74.12 617.867 74.168 617.937 74.264L618.385 74.84ZM621.781 64.192V76H620.213V64.192H621.781ZM625.641 67.872V76H624.081V67.872H625.641ZM625.937 65.36C625.937 65.504 625.908 65.6427 625.849 65.776C625.791 65.904 625.711 66.0187 625.609 66.12C625.513 66.216 625.399 66.2933 625.265 66.352C625.132 66.4053 624.993 66.432 624.849 66.432C624.705 66.432 624.569 66.4053 624.441 66.352C624.313 66.2933 624.199 66.216 624.097 66.12C624.001 66.0187 623.924 65.904 623.865 65.776C623.812 65.6427 623.785 65.504 623.785 65.36C623.785 65.2107 623.812 65.072 623.865 64.944C623.924 64.8107 624.001 64.696 624.097 64.6C624.199 64.4987 624.313 64.4213 624.441 64.368C624.569 64.3093 624.705 64.28 624.849 64.28C624.993 64.28 625.132 64.3093 625.265 64.368C625.399 64.4213 625.513 64.4987 625.609 64.6C625.711 64.696 625.791 64.8107 625.849 64.944C625.908 65.072 625.937 65.2107 625.937 65.36ZM634.956 67.872L631.66 76H630.252L626.956 67.872H628.244C628.367 67.872 628.468 67.9013 628.548 67.96C628.628 68.0187 628.681 68.0933 628.708 68.184L630.652 73.176C630.721 73.384 630.78 73.592 630.828 73.8C630.881 74.0027 630.929 74.2053 630.972 74.408C631.015 74.2053 631.063 74.0027 631.116 73.8C631.169 73.5973 631.233 73.3893 631.308 73.176L633.276 68.184C633.308 68.0933 633.364 68.0187 633.444 67.96C633.524 67.9013 633.62 67.872 633.732 67.872H634.956ZM641.347 71.032C641.347 70.7227 641.301 70.4373 641.211 70.176C641.125 69.9147 640.997 69.688 640.827 69.496C640.656 69.304 640.448 69.1547 640.203 69.048C639.957 68.9413 639.675 68.888 639.355 68.888C638.699 68.888 638.181 69.0773 637.803 69.456C637.429 69.8347 637.192 70.36 637.091 71.032H641.347ZM642.635 74.84C642.443 75.064 642.221 75.2587 641.971 75.424C641.72 75.584 641.453 75.7147 641.171 75.816C640.888 75.9173 640.595 75.992 640.291 76.04C639.992 76.088 639.696 76.112 639.403 76.112C638.843 76.112 638.323 76.0187 637.843 75.832C637.368 75.64 636.955 75.3627 636.603 75C636.256 74.632 635.984 74.1787 635.787 73.64C635.595 73.096 635.499 72.472 635.499 71.768C635.499 71.2027 635.587 70.6773 635.763 70.192C635.939 69.7013 636.189 69.2747 636.515 68.912C636.845 68.5493 637.248 68.264 637.723 68.056C638.197 67.848 638.731 67.744 639.323 67.744C639.819 67.744 640.275 67.8267 640.691 67.992C641.112 68.152 641.475 68.3867 641.779 68.696C642.083 69.0053 642.32 69.3867 642.491 69.84C642.667 70.2933 642.755 70.8107 642.755 71.392C642.755 71.632 642.728 71.7947 642.675 71.88C642.621 71.96 642.523 72 642.379 72H637.051C637.067 72.4853 637.136 72.9093 637.259 73.272C637.381 73.6293 637.549 73.928 637.763 74.168C637.981 74.408 638.24 74.5867 638.539 74.704C638.837 74.8213 639.171 74.88 639.539 74.88C639.885 74.88 640.184 74.84 640.435 74.76C640.691 74.68 640.909 74.5947 641.091 74.504C641.277 74.408 641.432 74.32 641.555 74.24C641.683 74.16 641.795 74.12 641.891 74.12C642.019 74.12 642.117 74.168 642.187 74.264L642.635 74.84ZM645.903 69.432C646.165 68.8987 646.479 68.48 646.847 68.176C647.215 67.872 647.658 67.72 648.175 67.72C648.351 67.72 648.517 67.7413 648.671 67.784C648.831 67.8213 648.97 67.88 649.087 67.96L648.983 69.136C648.946 69.28 648.858 69.352 648.719 69.352C648.645 69.352 648.533 69.3387 648.383 69.312C648.234 69.28 648.074 69.264 647.903 69.264C647.653 69.264 647.431 69.3013 647.239 69.376C647.047 69.4453 646.874 69.552 646.719 69.696C646.57 69.8347 646.437 70.008 646.319 70.216C646.202 70.4187 646.093 70.6507 645.991 70.912V76H644.431V67.872H645.327C645.498 67.872 645.613 67.904 645.671 67.968C645.735 68.0267 645.781 68.1333 645.807 68.288L645.903 69.432ZM657.395 67.872L652.883 78.36C652.835 78.4773 652.771 78.568 652.691 78.632C652.611 78.696 652.493 78.728 652.339 78.728H651.179L652.667 75.488L649.331 67.872H650.691C650.824 67.872 650.928 67.904 651.003 67.968C651.077 68.032 651.131 68.104 651.163 68.184L653.227 73.064C653.269 73.1867 653.309 73.312 653.347 73.44C653.389 73.5627 653.424 73.6853 653.451 73.808C653.488 73.68 653.528 73.5547 653.571 73.432C653.613 73.304 653.659 73.1787 653.707 73.056L655.699 68.184C655.736 68.0933 655.795 68.0187 655.875 67.96C655.955 67.9013 656.045 67.872 656.147 67.872H657.395Z" fill="white"/>
<path d="M652.043 25C652.043 38.5306 641.065 49.5 627.522 49.5C613.979 49.5 603.001 38.5306 603.001 25C603.001 11.4694 613.979 0.5 627.522 0.5C641.065 0.5 652.043 11.4694 652.043 25Z" stroke="#E81E2A"/>
<path d="M590.492 28.5L585.492 25.6132L585.492 31.3867L590.492 28.5ZM478.398 29L481.512 29L481.512 28L478.398 28L478.398 29ZM487.74 29L493.967 29L493.967 28L487.74 28L487.74 29ZM500.194 29L506.422 29L506.422 28L500.194 28L500.194 29ZM512.649 29L518.877 29L518.877 28L512.649 28L512.649 29ZM525.104 29L531.331 29L531.331 28L525.104 28L525.104 29ZM537.559 29L543.786 29L543.786 28L537.559 28L537.559 29ZM550.014 29L556.241 29L556.241 28L550.014 28L550.014 29ZM562.468 29L568.696 29L568.696 28L562.468 28L562.468 29ZM574.923 29L581.151 29L581.151 28L574.923 28L574.923 29Z" fill="white"/>
<path d="M403.336 28.5L398.336 25.6132L398.336 31.3867L403.336 28.5ZM291.243 29L294.356 29L294.356 28L291.243 28L291.243 29ZM300.584 29L306.811 29L306.811 28L300.584 28L300.584 29ZM313.039 29L319.266 29L319.266 28L313.039 28L313.039 29ZM325.493 29L331.721 29L331.721 28L325.493 28L325.493 29ZM337.948 29L344.176 29L344.176 28L337.948 28L337.948 29ZM350.403 29L356.63 29L356.63 28L350.403 28L350.403 29ZM362.858 29L369.085 29L369.085 28L362.858 28L362.858 29ZM375.313 29L381.54 29L381.54 28L375.313 28L375.313 29ZM387.767 29L393.995 29L393.995 28L387.767 28L387.767 29Z" fill="white"/>
<path d="M189.158 28.5L184.158 25.6132L184.158 31.3867L189.158 28.5ZM77.0642 29L80.1779 29L80.1779 28L77.0642 28L77.0642 29ZM86.4053 29L92.6327 29L92.6327 28L86.4053 28L86.4053 29ZM98.8601 29L105.088 29L105.088 28L98.8601 28L98.8601 29ZM111.315 29L117.542 29L117.542 28L111.315 28L111.315 29ZM123.77 29L129.997 29L129.997 28L123.77 28L123.77 29ZM136.225 29L142.452 29L142.452 28L136.225 28L136.225 29ZM148.679 29L154.907 29L154.907 28L148.679 28L148.679 29ZM161.134 29L167.362 29L167.362 28L161.134 28L161.134 29ZM173.589 29L179.816 29L179.816 28L173.589 28L173.589 29Z" fill="white"/>
<path d="M39.2959 17.2105V15M39.2959 17.2105V19.4211M39.2959 17.2105H34.3181M26.0217 23.8421V33.7895C26.0217 35.0103 27.0122 36 28.2341 36H43.7207C44.9426 36 45.933 35.0103 45.933 33.7895V23.8421H26.0217Z" stroke="white" stroke-width="1.5" stroke-linecap="round" stroke-linejoin="round"/>
<path d="M26.0217 23.8423V19.4212C26.0217 18.2004 27.0122 17.2107 28.2341 17.2107H30.4465" stroke="white" stroke-width="1.5" stroke-linecap="round" stroke-linejoin="round"/>
<path d="M30.4463 15V19.4211" stroke="white" stroke-width="1.5" stroke-linecap="round" stroke-linejoin="round"/>
<path d="M45.9329 23.8423V19.4212C45.9329 18.2004 44.9425 17.2107 43.7206 17.2107H43.1675" stroke="white" stroke-width="1.5" stroke-linecap="round" stroke-linejoin="round"/>
<path d="M235.635 22.9187H240.598H245.562" stroke="white" stroke-width="1.5" stroke-linecap="round" stroke-linejoin="round"/>
<path d="M235.635 27.8779H238.117H240.598" stroke="white" stroke-width="1.5" stroke-linecap="round" stroke-linejoin="round"/>
<path d="M240.599 37.7966C247.452 37.7966 253.007 32.2457 253.007 25.3983C253.007 18.5509 247.452 13 240.599 13C233.745 13 228.19 18.5509 228.19 25.3983C228.19 27.6565 228.794 29.7738 229.85 31.5975L228.81 37.1767L234.394 36.138C236.219 37.1928 238.338 37.7966 240.599 37.7966Z" stroke="white" stroke-width="1.5" stroke-linecap="round" stroke-linejoin="round"/>
<path d="M435.875 28.9141H446.908" stroke="white" stroke-width="1.5" stroke-linecap="round" stroke-linejoin="round"/>
<path d="M435.875 23.4021H438.634" stroke="white" stroke-width="1.5" stroke-linecap="round" stroke-linejoin="round"/>
<path d="M435.875 34.426H441.392" stroke="white" stroke-width="1.5" stroke-linecap="round" stroke-linejoin="round"/>
<path d="M438.633 13.756H433.117C431.593 13.756 430.358 14.9899 430.358 16.512V37.1821C430.358 38.7043 431.593 39.9381 433.117 39.9381H449.667C451.19 39.9381 452.425 38.7043 452.425 37.1821V16.512C452.425 14.9899 451.19 13.756 449.667 13.756H444.84M438.633 13.756V11M438.633 13.756V16.512" stroke="white" stroke-width="1.5" stroke-linecap="round" stroke-linejoin="round"/>
<path d="M622.183 33.7272C623.608 33.7272 624.764 32.5731 624.764 31.1493C624.764 29.7254 623.608 28.5713 622.183 28.5713C620.758 28.5713 619.603 29.7254 619.603 31.1493C619.603 32.5731 620.758 33.7272 622.183 33.7272Z" stroke="white" stroke-width="1.5" stroke-miterlimit="1.5" stroke-linecap="round" stroke-linejoin="round"/>
<path d="M635.084 33.7272C636.509 33.7272 637.664 32.5731 637.664 31.1493C637.664 29.7254 636.509 28.5713 635.084 28.5713C633.659 28.5713 632.504 29.7254 632.504 31.1493C632.504 32.5731 633.659 33.7272 635.084 33.7272Z" stroke="white" stroke-width="1.5" stroke-miterlimit="1.5" stroke-linecap="round" stroke-linejoin="round"/>
<path d="M624.828 31.1493H631.214V17.7439C631.214 17.3167 630.867 16.9705 630.44 16.9705H613.153" stroke="white" stroke-width="1.5" stroke-linecap="round"/>
<path d="M619.152 31.1495H616.507C616.079 31.1495 615.733 30.8033 615.733 30.3761V24.0601" stroke="white" stroke-width="1.5" stroke-linecap="round"/>
<path d="M614.443 20.8374H619.603" stroke="white" stroke-width="1.5" stroke-linecap="round" stroke-linejoin="round"/>
<path d="M631.213 20.8374H638.451C638.757 20.8374 639.034 21.0174 639.158 21.2967L641.467 26.4878C641.511 26.5868 641.534 26.6938 641.534 26.8019V30.3759C641.534 30.8031 641.187 31.1493 640.76 31.1493H638.309" stroke="white" stroke-width="1.5" stroke-linecap="round"/>
<path d="M631.213 31.1492H632.503" stroke="white" stroke-width="1.5" stroke-linecap="round"/>
</svg>
