<svg width="51" height="50" viewBox="0 0 51 50" fill="none" xmlns="http://www.w3.org/2000/svg">
<path d="M50.1133 25C50.1133 38.5306 39.1354 49.5 25.5925 49.5C12.0496 49.5 1.07166 38.5306 1.07166 25C1.07166 11.4694 12.0496 0.5 25.5925 0.5C39.1354 0.5 50.1133 11.4694 50.1133 25Z" stroke="#E81E2A"/>
<path d="M20.1 27.9883H31.1332" stroke="white" stroke-width="1.5" stroke-linecap="round" stroke-linejoin="round"/>
<path d="M20.1 22.4534H22.8583" stroke="white" stroke-width="1.5" stroke-linecap="round" stroke-linejoin="round"/>
<path d="M20.1 33.5229H25.6166" stroke="white" stroke-width="1.5" stroke-linecap="round" stroke-linejoin="round"/>
<path d="M22.8582 12.7674H17.3416C15.8182 12.7674 14.5833 14.0064 14.5833 15.5348V36.2905C14.5833 37.819 15.8182 39.058 17.3416 39.058H33.8914C35.4148 39.058 36.6497 37.819 36.6497 36.2905V15.5348C36.6497 14.0064 35.4148 12.7674 33.8914 12.7674H29.0644M22.8582 12.7674V10M22.8582 12.7674V15.5348" stroke="white" stroke-width="1.5" stroke-linecap="round" stroke-linejoin="round"/>
</svg>
