<svg width="51" height="50" viewBox="0 0 51 50" fill="none" xmlns="http://www.w3.org/2000/svg">
<path d="M50.2682 25C50.2682 38.5306 39.2903 49.5 25.7474 49.5C12.2045 49.5 1.22656 38.5306 1.22656 25C1.22656 11.4694 12.2045 0.5 25.7474 0.5C39.2903 0.5 50.2682 11.4694 50.2682 25Z" stroke="#E81E2A"/>
<path d="M20.4085 32.8216C21.8335 32.8216 22.9886 31.6626 22.9886 30.2329C22.9886 28.8032 21.8335 27.6443 20.4085 27.6443C18.9835 27.6443 17.8284 28.8032 17.8284 30.2329C17.8284 31.6626 18.9835 32.8216 20.4085 32.8216Z" stroke="white" stroke-width="1.5" stroke-miterlimit="1.5" stroke-linecap="round" stroke-linejoin="round"/>
<path d="M33.3089 32.8216C34.7339 32.8216 35.889 31.6626 35.889 30.2329C35.889 28.8032 34.7339 27.6443 33.3089 27.6443C31.8839 27.6443 30.7288 28.8032 30.7288 30.2329C30.7288 31.6626 31.8839 32.8216 33.3089 32.8216Z" stroke="white" stroke-width="1.5" stroke-miterlimit="1.5" stroke-linecap="round" stroke-linejoin="round"/>
<path d="M23.053 30.2329H29.4388V16.772C29.4388 16.3431 29.0923 15.9954 28.6647 15.9954H11.3779" stroke="white" stroke-width="1.5" stroke-linecap="round"/>
<path d="M17.3767 30.233H14.732C14.3046 30.233 13.958 29.8854 13.958 29.4564V23.1143" stroke="white" stroke-width="1.5" stroke-linecap="round"/>
<path d="M12.6677 19.8784H17.828" stroke="white" stroke-width="1.5" stroke-linecap="round" stroke-linejoin="round"/>
<path d="M29.4385 19.8784H36.6758C36.9817 19.8784 37.2589 20.0592 37.3832 20.3396L39.6923 25.5522C39.7362 25.6516 39.759 25.759 39.759 25.8676V29.4564C39.759 29.8853 39.4124 30.233 38.9849 30.233H36.5338" stroke="white" stroke-width="1.5" stroke-linecap="round"/>
<path d="M29.4385 30.2327H30.7285" stroke="white" stroke-width="1.5" stroke-linecap="round"/>
</svg>
