<svg width="235" height="43" viewBox="0 0 235 43" fill="none" xmlns="http://www.w3.org/2000/svg">
<g clip-path="url(#clip0_103_266)">
<path d="M233.429 14.1248C232.395 12.8438 230.895 12.2034 228.929 12.2034C226.964 12.2034 225.445 12.7981 224.255 13.9875C223.318 14.9156 222.658 16.1704 222.29 17.7454L222.044 12.6151H218.922V34.0448H222.529V19.2028C223.059 18.0787 223.77 17.203 224.663 16.5756C225.555 15.9351 226.55 15.6149 227.649 15.6149C228.968 15.6149 229.919 16.0331 230.5 16.8697C231.095 17.6931 231.393 19.0198 231.393 20.8498V34.0448H235V19.6538C235 17.2487 234.476 15.4057 233.429 14.1248Z" fill="#E81E2A"/>
<path d="M214.978 14.2031C213.633 12.896 211.655 12.2424 209.043 12.2424C207.272 12.2424 205.74 12.5561 204.447 13.1835C203.167 13.8109 202.203 14.6932 201.557 15.8304C200.923 16.9545 200.684 18.2747 200.839 19.7909H204.214C204.162 18.157 204.544 17.0068 205.358 16.3402C206.186 15.6605 207.408 15.3206 209.024 15.3206C210.64 15.3206 211.694 15.667 212.418 16.3598C213.155 17.0525 213.524 18.2028 213.524 19.8105V21.4574C212.877 21.4836 212.159 21.5358 211.371 21.6143C210.582 21.6796 209.767 21.7646 208.927 21.8691C208.087 21.9737 207.259 22.1044 206.444 22.2613C204.337 22.6665 202.766 23.3788 201.732 24.3984C200.71 25.4048 200.199 26.7054 200.199 28.3C200.199 30.13 200.775 31.5874 201.925 32.6722C203.089 33.7441 204.667 34.28 206.658 34.28C207.77 34.28 208.791 34.0774 209.722 33.6722C210.666 33.2539 211.468 32.6788 212.127 31.9468C212.787 31.2018 213.252 30.3522 213.524 29.398L213.543 34.0447H216.995V19.9281C216.995 17.4054 216.323 15.4971 214.978 14.2031ZM213.524 27.8295C213.381 28.4569 213.006 29.0451 212.399 29.594C211.791 30.13 211.067 30.5678 210.226 30.9077C209.399 31.2344 208.552 31.3978 207.686 31.3978C206.509 31.3848 205.598 31.0907 204.951 30.5155C204.317 29.9274 204.001 29.1235 204.001 28.104C204.001 27.0844 204.33 26.3655 204.99 25.7904C205.649 25.2153 206.806 24.7447 208.462 24.3788C208.927 24.2742 209.464 24.1762 210.071 24.0847C210.679 23.9801 211.287 23.8951 211.894 23.8298C212.515 23.7514 213.058 23.6991 213.524 23.6729V27.8295Z" fill="#E81E2A"/>
<path d="M112.069 14.2031C110.725 12.896 108.746 12.2424 106.135 12.2424C104.363 12.2424 102.831 12.5561 101.538 13.1835C100.258 13.8109 99.2948 14.6932 98.6483 15.8304C98.0147 16.9545 97.7755 18.2747 97.9307 19.7909H101.305C101.254 18.157 101.635 17.0068 102.45 16.3402C103.277 15.6605 104.499 15.3206 106.115 15.3206C107.731 15.3206 108.785 15.667 109.509 16.3598C110.246 17.0525 110.615 18.2028 110.615 19.8105V21.4574C109.968 21.4836 109.251 21.5358 108.462 21.6143C107.673 21.6796 106.859 21.7646 106.018 21.8691C105.178 21.9737 104.35 22.1044 103.536 22.2613C101.428 22.6665 99.8572 23.3788 98.8228 24.3984C97.8014 25.4048 97.2906 26.7054 97.2906 28.3C97.2906 30.13 97.866 31.5874 99.0168 32.6722C100.18 33.7441 101.758 34.28 103.749 34.28C104.861 34.28 105.883 34.0774 106.813 33.6722C107.757 33.2539 108.559 32.6788 109.218 31.9468C109.878 31.2018 110.343 30.3522 110.615 29.398L110.634 34.0447H114.087V19.9281C114.087 17.4054 113.414 15.4971 112.069 14.2031ZM110.615 27.8295C110.473 28.4569 110.098 29.0451 109.49 29.594C108.882 30.13 108.158 30.5678 107.318 30.9077C106.49 31.2344 105.643 31.3978 104.777 31.3978C103.6 31.3848 102.689 31.0907 102.042 30.5155C101.409 29.9274 101.092 29.1235 101.092 28.104C101.092 27.0844 101.422 26.3655 102.081 25.7904C102.741 25.2153 103.898 24.7447 105.553 24.3788C106.018 24.2742 106.555 24.1762 107.163 24.0847C107.77 23.9801 108.378 23.8951 108.986 23.8298C109.606 23.7514 110.149 23.6991 110.615 23.6729V27.8295Z" fill="#E81E2A"/>
<path d="M198.719 33.6526C198.37 32.8945 197.717 32.2344 196.76 31.6724C195.816 31.0972 194.452 30.692 192.668 30.4568L187.625 29.8294C186.435 29.6725 185.589 29.4438 185.084 29.1431C184.593 28.8294 184.347 28.3654 184.347 27.7511C184.347 27.176 184.483 26.7316 184.755 26.4179C184.968 26.163 185.233 25.9473 185.55 25.7839C186.681 26.2741 188.006 26.5159 189.526 26.5159C191.995 26.5159 193.948 25.8819 195.383 24.6141C196.831 23.3331 197.555 21.6012 197.555 19.4184C197.555 17.9414 197.219 16.6735 196.547 15.6148C195.874 14.556 194.937 13.7391 193.734 13.164C193.301 12.9548 192.836 12.7784 192.351 12.6477C192.584 12.4712 192.816 12.334 193.056 12.2229C193.456 12.0399 193.883 11.9157 194.336 11.8503C194.788 11.785 195.273 11.7523 195.79 11.7523C196.307 11.7523 196.702 11.7719 197.051 11.8111C197.4 11.8503 197.775 11.9026 198.176 11.968V8.45844C198.021 8.39308 197.82 8.34734 197.574 8.32119C197.342 8.29505 197.025 8.28198 196.624 8.28198C195.848 8.28198 195.098 8.4519 194.374 8.79175C193.65 9.11852 193.036 9.62175 192.532 10.3014C192.099 10.8896 191.814 11.6151 191.672 12.4843C191.013 12.3536 190.314 12.2882 189.564 12.2817C187.121 12.2555 185.162 12.8895 183.688 14.1835C182.227 15.4644 181.496 17.2094 181.496 19.4184C181.496 21.6274 182.22 23.3135 183.668 24.5945C184.147 25.0127 184.677 25.3656 185.259 25.6467C184.981 25.6532 184.677 25.6859 184.347 25.7512C183.804 25.8427 183.274 26.0192 182.757 26.2806C182.253 26.529 181.832 26.8688 181.496 27.3001C181.173 27.7315 181.011 28.2674 181.011 28.9079C181.011 29.3523 181.141 29.8424 181.399 30.3783C181.671 30.9012 182.22 31.3913 183.048 31.8488C183.255 31.9599 183.494 32.0645 183.752 32.1625C183.093 32.2736 182.498 32.4828 181.962 32.7899C181.251 33.182 180.695 33.7049 180.294 34.3584C179.906 35.025 179.712 35.8028 179.712 36.6916C179.712 37.9595 180.132 39.0574 180.973 39.9854C181.813 40.9266 182.977 41.652 184.464 42.1618C185.963 42.6715 187.696 42.9264 189.661 42.9264C191.097 42.9264 192.396 42.7761 193.56 42.4755C194.736 42.1879 195.745 41.7566 196.585 41.1814C197.439 40.6063 198.092 39.8874 198.544 39.0247C199.01 38.1621 199.242 37.1621 199.242 36.025C199.242 35.2015 199.068 34.4107 198.719 33.6526ZM184.871 19.3792C184.871 18.0329 185.246 17.0068 185.996 16.301C186.759 15.5951 187.922 15.2422 189.487 15.2422C191.051 15.2422 192.209 15.6082 192.997 16.3402C193.786 17.0591 194.18 18.0786 194.18 19.3988C194.18 20.7189 193.793 21.7777 193.017 22.4966C192.241 23.2024 191.09 23.5553 189.564 23.5553C188.039 23.5553 186.843 23.1959 186.054 22.477C185.265 21.745 184.871 20.7124 184.871 19.3792ZM194.2 38.8287C193.256 39.4822 191.73 39.809 189.623 39.809C188.006 39.809 186.733 39.626 185.802 39.26C184.871 38.9071 184.211 38.4365 183.824 37.8484C183.449 37.2602 183.261 36.6132 183.261 35.9073C183.261 35.2015 183.358 34.5872 183.552 34.1035C183.746 33.633 183.992 33.2474 184.289 32.9468C184.464 32.7768 184.645 32.62 184.826 32.4762C185.414 32.6265 186.099 32.7507 186.869 32.8487L191.892 33.5154C193.366 33.7114 194.355 33.9924 194.859 34.3584C195.363 34.7244 195.616 35.293 195.616 36.0642C195.616 37.2536 195.144 38.1751 194.2 38.8287Z" fill="#E81E2A"/>
<path d="M171.598 3.77252C171.055 3.21047 170.39 2.92944 169.601 2.92944C168.812 2.92944 168.14 3.21047 167.584 3.77252C167.041 4.32149 166.769 5.04039 166.769 5.92921C166.769 6.81804 167.041 7.51733 167.584 8.06631C168.14 8.61528 168.812 8.88977 169.601 8.88977C170.39 8.88977 171.042 8.61528 171.598 8.06631C172.154 7.51733 172.432 6.80496 172.432 5.92921C172.432 5.05346 172.154 4.32149 171.598 3.77252Z" fill="#E81E2A"/>
<path d="M177.785 31.0843V34.0448H161.086V31.0843H167.991V18.399C167.991 17.7454 168.107 17.1964 168.34 16.752C168.573 16.2945 169.025 16.0397 169.698 15.9874H160.505V12.6543H171.54L171.489 31.0843H177.785Z" fill="#E81E2A"/>
<path d="M158.578 18.4186V34.0448H155.359V18.9087C155.359 17.7716 155.197 16.9416 154.874 16.4187C154.563 15.8828 154.053 15.6149 153.342 15.6149C152.553 15.6149 151.887 15.8959 151.344 16.4579C150.801 17.0069 150.342 17.7912 149.967 18.8107V34.0448H146.786V19.046C146.786 17.765 146.625 16.8762 146.301 16.3795C145.978 15.8698 145.5 15.6149 144.866 15.6149C144.31 15.6149 143.715 15.8305 143.082 16.2619C142.461 16.6802 141.892 17.5298 141.375 18.8107L141.297 34.0448H138.078L138.155 12.6347H141.026L141.272 17.6866C141.53 16.2161 141.976 15.0136 142.616 14.0856C143.483 12.8308 144.679 12.2034 146.204 12.2034C147.032 12.2034 147.724 12.3929 148.28 12.772C148.836 13.1379 149.249 13.7588 149.521 14.6346C149.76 15.3731 149.902 16.3468 149.935 17.5624C150.238 16.0462 150.717 14.8437 151.383 13.9483C152.249 12.785 153.4 12.2034 154.835 12.2034C156.076 12.2034 157.007 12.687 157.628 13.6542C158.261 14.6215 158.578 16.2096 158.578 18.4186Z" fill="#E81E2A"/>
<path d="M136.145 20.1832H132.615C132.589 18.5231 132.311 17.3468 131.781 16.654C131.264 15.9613 130.43 15.6149 129.279 15.6149C128.245 15.6149 127.23 16.0201 126.234 16.8305C125.239 17.6278 124.489 18.595 123.984 19.7322V29.5354C123.984 29.9537 123.887 30.2935 123.693 30.5549C123.512 30.8033 123.215 30.9797 122.801 31.0843H130.986V34.0448H116.226V31.0843H120.377V18.0657C120.377 17.3468 120.493 16.8435 120.726 16.556C120.972 16.2684 121.366 16.0789 121.909 15.9874H116.013V12.6151H123.499L123.752 18.3598C124.075 17.1311 124.586 16.0593 125.284 15.1443C125.982 14.2163 126.803 13.4974 127.747 12.9876C128.691 12.4648 129.673 12.2034 130.695 12.2034C132.453 12.2034 133.817 12.8634 134.787 14.1836C135.757 15.4907 136.209 17.4905 136.145 20.1832Z" fill="#E81E2A"/>
<path d="M73.1507 7.69381C71.5344 6.25601 69.0519 5.53711 65.7031 5.53711H56.4324V34.0447H60.0592V22.5946C60.0915 22.9018 60.2144 23.1567 60.4277 23.3593C60.6992 23.5946 61.0354 23.7122 61.4362 23.7122H65.897C67.6555 23.7122 69.1489 23.4638 70.3772 22.9672C71.6055 22.4574 72.6012 21.7646 73.364 20.8889C74.1269 20.0131 74.6829 19.0067 75.032 17.8695C75.394 16.7323 75.575 15.5233 75.575 14.2423C75.575 11.3144 74.7669 9.13161 73.1507 7.69381ZM71.2306 17.6538C70.8298 18.5296 70.2027 19.2027 69.3493 19.6733C68.4959 20.1308 67.3775 20.3595 65.994 20.3595H60.0592V8.96822H65.8194C67.19 8.96822 68.3149 9.16428 69.1941 9.55641C70.0863 9.93547 70.7457 10.5302 71.1724 11.3406C71.612 12.1379 71.8318 13.1705 71.8318 14.4384C71.8318 15.7063 71.6314 16.765 71.2306 17.6538Z" fill="#E81E2A"/>
<path d="M95.364 29.8098V33.2997C94.5883 33.5873 93.6896 33.8356 92.6682 34.0448C91.6596 34.2408 90.399 34.3389 88.8862 34.3389C87.5415 34.3389 86.3843 34.1232 85.4145 33.6919C84.4577 33.2605 83.7207 32.5874 83.2035 31.6724C82.6993 30.7444 82.4471 29.5419 82.4471 28.0648V18.6342C82.4471 18.2813 82.5053 17.9088 82.6217 17.5166C82.7381 17.1245 82.9255 16.7781 83.1841 16.4775C83.4557 16.1769 83.8112 15.9939 84.2509 15.9285H77.5015V12.6346H82.5247L83.3781 5.14502H86.1903V12.6346H93.5603V15.9285H86.1903V27.4963C86.1903 28.8818 86.4683 29.8033 87.0243 30.2607C87.5932 30.7052 88.5306 30.9274 89.8365 30.9274C90.7287 30.9274 91.498 30.8751 92.1445 30.7705C92.8039 30.6659 93.3858 30.5287 93.89 30.3588C94.4072 30.1889 94.8986 30.0059 95.364 29.8098Z" fill="#E81E2A"/>
<path d="M42.5327 15.458V27.2022L30.9799 17.6408H36.1906V16.6344H29.7645L27.1785 14.4973H36.1841V13.4908H25.9631L22.931 10.9812L25.7368 8.62844C25.7368 8.62844 29.842 4.6026 35.654 6.4456C41.466 8.28859 42.5456 13.7849 42.5456 15.4645L42.5327 15.458Z" fill="#E81E2A"/>
<path d="M22.9634 10.9746L17.9208 6.93567V15.02L22.9634 10.9746Z" fill="#E81E2A"/>
<path d="M6.59423 18.6668V6.92261L18.147 16.484H12.9363V17.4904H19.3625L21.9484 19.6275H12.9428V20.634H23.1638L26.1959 23.1436L23.3901 25.4964C23.3901 25.4964 19.2849 29.5222 13.4729 27.6792C7.66094 25.8362 6.5813 20.3399 6.5813 18.6603L6.59423 18.6668Z" fill="#E81E2A"/>
<path d="M26.1636 23.1502L31.2062 27.1891V19.1047L26.1636 23.1502Z" fill="#E81E2A"/>
<path d="M16.4533 12.4385C17.2566 12.4385 17.9079 11.7802 17.9079 10.968C17.9079 10.1559 17.2566 9.49756 16.4533 9.49756C15.6499 9.49756 14.9987 10.1559 14.9987 10.968C14.9987 11.7802 15.6499 12.4385 16.4533 12.4385Z" fill="#E81E2A"/>
<path d="M47.6723 1.54396V32.5808H1.45461V1.54396H47.6788M49.1334 0.0734863H0V34.0513H49.127V0.0734863H49.1334Z" fill="#E81E2A"/>
</g>
<defs>
<clipPath id="clip0_103_266">
<rect width="235" height="42.8529" fill="white" transform="translate(0 0.0734863)"/>
</clipPath>
</defs>
</svg>
