<svg width="51" height="50" viewBox="0 0 51 50" fill="none" xmlns="http://www.w3.org/2000/svg">
<path d="M49.7758 25C49.7758 38.5306 38.7978 49.5 25.255 49.5C11.7121 49.5 0.734131 38.5306 0.734131 25C0.734131 11.4694 11.7121 0.5 25.255 0.5C38.7978 0.5 49.7758 11.4694 49.7758 25Z" stroke="#E81E2A"/>
<path d="M28.5209 16.2363V14.0166M28.5209 16.2363V18.456M28.5209 16.2363H23.5431M15.2467 22.8953V32.8839C15.2467 34.1098 16.2372 35.1036 17.4591 35.1036H32.9457C34.1675 35.1036 35.158 34.1098 35.158 32.8839V22.8953H15.2467Z" stroke="white" stroke-width="1.5" stroke-linecap="round" stroke-linejoin="round"/>
<path d="M15.2467 22.8954V18.456C15.2467 17.2301 16.2372 16.2363 17.4591 16.2363H19.6714" stroke="white" stroke-width="1.5" stroke-linecap="round" stroke-linejoin="round"/>
<path d="M19.6714 14.0166V18.456" stroke="white" stroke-width="1.5" stroke-linecap="round" stroke-linejoin="round"/>
<path d="M35.1579 22.8954V18.456C35.1579 17.2301 34.1674 16.2363 32.9455 16.2363H32.3925" stroke="white" stroke-width="1.5" stroke-linecap="round" stroke-linejoin="round"/>
</svg>
