<svg width="51" height="50" viewBox="0 0 51 50" fill="none" xmlns="http://www.w3.org/2000/svg">
<path d="M49.9458 25C49.9458 38.5306 38.9679 49.5 25.425 49.5C11.8821 49.5 0.904175 38.5306 0.904175 25C0.904175 11.4694 11.8821 0.5 25.425 0.5C38.9679 0.5 49.9458 11.4694 49.9458 25Z" stroke="#E81E2A"/>
<path d="M20.8601 21.968H25.8236H30.787" stroke="white" stroke-width="1.5" stroke-linecap="round" stroke-linejoin="round"/>
<path d="M20.8601 26.9478H23.3418H25.8236" stroke="white" stroke-width="1.5" stroke-linecap="round" stroke-linejoin="round"/>
<path d="M25.8237 36.9076C32.6767 36.9076 38.2323 31.3337 38.2323 24.458C38.2323 17.5822 32.6767 12.0083 25.8237 12.0083C18.9706 12.0083 13.415 17.5822 13.415 24.458C13.415 26.7255 14.0193 28.8516 15.0751 30.6828L14.0355 36.2851L19.6194 35.2421C21.4445 36.3013 23.5636 36.9076 25.8237 36.9076Z" stroke="white" stroke-width="1.5" stroke-linecap="round" stroke-linejoin="round"/>
</svg>
