<svg width="306" height="213" viewBox="0 0 306 213" fill="none" xmlns="http://www.w3.org/2000/svg">
<path d="M305 91.4648V204.592L193.576 112.491H243.832V102.796H181.854L156.913 82.2107H243.77V72.5159H145.191L115.947 48.3417L143.008 25.6785C143.008 25.6785 182.602 -13.1008 238.657 4.65206C294.712 22.4049 305.125 75.3487 305.125 91.5278L305 91.4648Z" fill="#F1F1F1"/>
<path d="M115.947 48.3141L68.3026 9.80908V86.8814L115.947 48.3141Z" fill="#F1F1F1"/>
<path d="M-40.8762 122.162V9.80908L69.7224 101.279H19.8385V110.908H81.3579L106.114 131.352H19.9004V140.981H117.75L146.776 164.989L119.916 187.497C119.916 187.497 80.6152 226.011 24.9755 208.38C-30.6643 190.748 -41 138.167 -41 122.099L-40.8762 122.162Z" fill="#F1F1F1"/>
<path d="M146.776 164.686L195.822 203.191V126.119L146.776 164.686Z" fill="#F1F1F1"/>
<path d="M54.2895 61.6577C62.0288 61.6577 68.3027 55.3838 68.3027 47.6445C68.3027 39.9053 62.0288 33.6313 54.2895 33.6313C46.5503 33.6313 40.2764 39.9053 40.2764 47.6445C40.2764 55.3838 46.5503 61.6577 54.2895 61.6577Z" fill="#F1F1F1"/>
</svg>
