<svg width="28" height="25" viewBox="0 0 28 25" fill="none" xmlns="http://www.w3.org/2000/svg">
<path d="M22.0569 25C20.2188 25 18.7075 24.3866 17.523 23.1599C16.3793 21.9332 15.8074 20.1354 15.8074 17.7665C15.8074 14.7631 16.7061 11.5905 18.5033 8.24874C20.3005 4.90694 22.4858 2.15737 25.0591 0L27.1422 1.96701C26.4478 2.77073 25.8147 3.78596 25.2429 5.0127C24.671 6.23943 24.1809 7.55076 23.7724 8.9467C23.4048 10.3426 23.1802 11.7597 23.0985 13.198C24.5689 13.4518 25.7535 14.1286 26.6521 15.2284C27.5507 16.286 28 17.555 28 19.0355C28 20.7699 27.4486 22.2081 26.3457 23.3503C25.2429 24.4501 23.8133 25 22.0569 25ZM6.24945 25C4.37053 25 2.85923 24.3866 1.71553 23.1599C0.571844 21.9332 0 20.1354 0 17.7665C0 14.7631 0.878191 11.5905 2.63457 8.24874C4.4318 4.90694 6.63749 2.15737 9.25164 0L11.3348 1.96701C10.6813 2.77073 10.0481 3.78596 9.43545 5.0127C8.8636 6.23943 8.37345 7.55076 7.96499 8.9467C7.59737 10.3426 7.37272 11.7597 7.29103 13.198C8.76149 13.4518 9.94602 14.1286 10.8446 15.2284C11.7433 16.286 12.1926 17.555 12.1926 19.0355C12.1926 20.7699 11.6411 22.2081 10.5383 23.3503C9.47629 24.4501 8.04668 25 6.24945 25Z" fill="white"/>
</svg>
