<svg width="211" height="192" viewBox="0 0 211 192" fill="none" xmlns="http://www.w3.org/2000/svg">
<path d="M125 29L120 26.1132V31.8868L125 29ZM76 29.5H79.0625V28.5H76V29.5ZM85.1875 29.5L91.3125 29.5V28.5L85.1875 28.5V29.5ZM97.4375 29.5H103.562V28.5H97.4375V29.5ZM109.688 29.5H115.812V28.5H109.688V29.5Z" fill="white"/>
<path d="M125 142L120 139.113V144.887L125 142ZM76 142.5H79.0625V141.5H76V142.5ZM85.1875 142.5H91.3125V141.5H85.1875V142.5ZM97.4375 142.5H103.562V141.5H97.4375V142.5ZM109.688 142.5H115.812V141.5H109.688V142.5Z" fill="white"/>
<path d="M10.913 70.384C10.8597 70.4747 10.8037 70.5413 10.745 70.584C10.6864 70.6267 10.6117 70.648 10.521 70.648C10.425 70.648 10.3157 70.6053 10.193 70.52C10.0704 70.4293 9.91569 70.3307 9.72902 70.224C9.54769 70.112 9.32902 70.0133 9.07302 69.928C8.81702 69.8373 8.51035 69.792 8.15302 69.792C7.81702 69.792 7.52102 69.8373 7.26502 69.928C7.01435 70.0133 6.80369 70.1333 6.63302 70.288C6.46235 70.4373 6.33169 70.616 6.24102 70.824C6.15569 71.0267 6.11302 71.248 6.11302 71.488C6.11302 71.7973 6.19035 72.0533 6.34502 72.256C6.50502 72.4587 6.71302 72.632 6.96902 72.776C7.22502 72.92 7.51569 73.0453 7.84102 73.152C8.16635 73.2587 8.49969 73.3707 8.84102 73.488C9.18235 73.6 9.51569 73.7307 9.84102 73.88C10.1664 74.0293 10.457 74.2187 10.713 74.448C10.969 74.672 11.1744 74.9493 11.329 75.28C11.489 75.6053 11.569 76.0053 11.569 76.48C11.569 76.9867 11.481 77.4613 11.305 77.904C11.1344 78.3467 10.8837 78.7333 10.553 79.064C10.2224 79.3947 9.81435 79.656 9.32902 79.848C8.84902 80.0347 8.30235 80.128 7.68902 80.128C7.32102 80.128 6.96369 80.0907 6.61702 80.016C6.27035 79.9467 5.94235 79.848 5.63302 79.72C5.32369 79.5867 5.03302 79.4293 4.76102 79.248C4.49435 79.0613 4.25435 78.8533 4.04102 78.624L4.52902 77.808C4.57702 77.744 4.63302 77.6907 4.69702 77.648C4.76635 77.6053 4.84369 77.584 4.92902 77.584C5.04102 77.584 5.16902 77.6427 5.31302 77.76C5.46235 77.8773 5.64369 78.008 5.85702 78.152C6.07569 78.2907 6.33435 78.4187 6.63302 78.536C6.93702 78.6533 7.30502 78.712 7.73702 78.712C8.08902 78.712 8.40369 78.6667 8.68102 78.576C8.95835 78.48 9.19035 78.3467 9.37702 78.176C9.56902 78 9.71569 77.7893 9.81702 77.544C9.91835 77.2987 9.96902 77.0267 9.96902 76.728C9.96902 76.392 9.89169 76.1173 9.73702 75.904C9.58235 75.6907 9.37702 75.512 9.12102 75.368C8.86502 75.224 8.57435 75.1013 8.24902 75C7.92369 74.8987 7.59035 74.7947 7.24902 74.688C6.90769 74.576 6.57435 74.448 6.24902 74.304C5.92369 74.16 5.63302 73.9733 5.37702 73.744C5.12102 73.5093 4.91569 73.2187 4.76102 72.872C4.60635 72.52 4.52902 72.088 4.52902 71.576C4.52902 71.1653 4.60902 70.768 4.76902 70.384C4.92902 70 5.16102 69.6613 5.46502 69.368C5.77435 69.0693 6.15302 68.832 6.60102 68.656C7.04902 68.4747 7.56102 68.384 8.13702 68.384C8.78235 68.384 9.37435 68.488 9.91302 68.696C10.457 68.8987 10.929 69.192 11.329 69.576L10.913 70.384ZM19.0013 73.392C18.9533 73.4507 18.9053 73.4987 18.8573 73.536C18.8146 73.568 18.7506 73.584 18.6653 73.584C18.5799 73.584 18.4893 73.552 18.3933 73.488C18.3026 73.4187 18.1853 73.3467 18.0413 73.272C17.9026 73.192 17.7319 73.12 17.5293 73.056C17.3319 72.9867 17.0866 72.952 16.7933 72.952C16.4093 72.952 16.0706 73.0213 15.7773 73.16C15.4839 73.2987 15.2386 73.496 15.0413 73.752C14.8493 74.008 14.7026 74.32 14.6013 74.688C14.4999 75.056 14.4493 75.4693 14.4493 75.928C14.4493 76.4027 14.5026 76.8267 14.6093 77.2C14.7159 77.568 14.8679 77.88 15.0653 78.136C15.2626 78.3867 15.5026 78.5787 15.7853 78.712C16.0679 78.84 16.3826 78.904 16.7293 78.904C17.0653 78.904 17.3426 78.864 17.5613 78.784C17.7799 78.6987 17.9613 78.608 18.1053 78.512C18.2493 78.416 18.3693 78.328 18.4653 78.248C18.5613 78.1627 18.6599 78.12 18.7613 78.12C18.8893 78.12 18.9879 78.168 19.0573 78.264L19.5053 78.84C19.3186 79.0693 19.1079 79.264 18.8733 79.424C18.6439 79.584 18.3986 79.7147 18.1373 79.816C17.8759 79.9173 17.6013 79.992 17.3133 80.04C17.0306 80.088 16.7426 80.112 16.4493 80.112C15.9426 80.112 15.4679 80.0187 15.0253 79.832C14.5879 79.6453 14.2066 79.3733 13.8813 79.016C13.5613 78.6587 13.3079 78.2213 13.1213 77.704C12.9346 77.1813 12.8413 76.5893 12.8413 75.928C12.8413 75.3253 12.9239 74.768 13.0893 74.256C13.2599 73.744 13.5079 73.304 13.8333 72.936C14.1639 72.5627 14.5693 72.272 15.0493 72.064C15.5293 71.8507 16.0786 71.744 16.6973 71.744C17.2786 71.744 17.7906 71.8373 18.2333 72.024C18.6759 72.2107 19.0706 72.4747 19.4173 72.816L19.0013 73.392ZM22.5215 72.904C22.8629 72.5573 23.2389 72.2773 23.6495 72.064C24.0655 71.8507 24.5429 71.744 25.0815 71.744C25.5295 71.744 25.9215 71.8187 26.2575 71.968C26.5989 72.1173 26.8842 72.328 27.1135 72.6C27.3429 72.8667 27.5162 73.1893 27.6335 73.568C27.7509 73.9467 27.8095 74.3653 27.8095 74.824V80H26.2415V74.824C26.2415 74.2427 26.1082 73.792 25.8415 73.472C25.5749 73.1467 25.1669 72.984 24.6175 72.984C24.2175 72.984 23.8415 73.08 23.4895 73.272C23.1429 73.4587 22.8202 73.7147 22.5215 74.04V80H20.9615V68.192H22.5215V72.904ZM35.2986 75.032C35.2986 74.7227 35.2533 74.4373 35.1626 74.176C35.0773 73.9147 34.9493 73.688 34.7786 73.496C34.608 73.304 34.4 73.1547 34.1546 73.048C33.9093 72.9413 33.6266 72.888 33.3066 72.888C32.6506 72.888 32.1333 73.0773 31.7546 73.456C31.3813 73.8347 31.144 74.36 31.0426 75.032H35.2986ZM36.5866 78.84C36.3946 79.064 36.1733 79.2587 35.9226 79.424C35.672 79.584 35.4053 79.7147 35.1226 79.816C34.84 79.9173 34.5466 79.992 34.2426 80.04C33.944 80.088 33.648 80.112 33.3546 80.112C32.7946 80.112 32.2746 80.0187 31.7946 79.832C31.32 79.64 30.9066 79.3627 30.5546 79C30.208 78.632 29.936 78.1787 29.7386 77.64C29.5466 77.096 29.4506 76.472 29.4506 75.768C29.4506 75.2027 29.5386 74.6773 29.7146 74.192C29.8906 73.7013 30.1413 73.2747 30.4666 72.912C30.7973 72.5493 31.2 72.264 31.6746 72.056C32.1493 71.848 32.6826 71.744 33.2746 71.744C33.7706 71.744 34.2266 71.8267 34.6426 71.992C35.064 72.152 35.4266 72.3867 35.7306 72.696C36.0346 73.0053 36.272 73.3867 36.4426 73.84C36.6186 74.2933 36.7066 74.8107 36.7066 75.392C36.7066 75.632 36.68 75.7947 36.6266 75.88C36.5733 75.96 36.4746 76 36.3306 76H31.0026C31.0186 76.4853 31.088 76.9093 31.2106 77.272C31.3333 77.6293 31.5013 77.928 31.7146 78.168C31.9333 78.408 32.192 78.5867 32.4906 78.704C32.7893 78.8213 33.1226 78.88 33.4906 78.88C33.8373 78.88 34.136 78.84 34.3866 78.76C34.6426 78.68 34.8613 78.5947 35.0426 78.504C35.2293 78.408 35.384 78.32 35.5066 78.24C35.6346 78.16 35.7466 78.12 35.8426 78.12C35.9706 78.12 36.0693 78.168 36.1386 78.264L36.5866 78.84ZM43.6234 73.84C43.3674 73.504 43.0901 73.2693 42.7914 73.136C42.4981 73.0027 42.1674 72.936 41.7994 72.936C41.0847 72.936 40.5301 73.1947 40.1354 73.712C39.7461 74.224 39.5514 74.9733 39.5514 75.96C39.5514 76.4773 39.5941 76.92 39.6794 77.288C39.7701 77.6507 39.8981 77.9493 40.0634 78.184C40.2341 78.4133 40.4421 78.584 40.6874 78.696C40.9327 78.8027 41.2101 78.856 41.5194 78.856C41.9727 78.856 42.3647 78.7547 42.6954 78.552C43.0261 78.3493 43.3354 78.064 43.6234 77.696V73.84ZM45.1914 68.192V80H44.2474C44.0287 80 43.8927 79.896 43.8394 79.688L43.7034 78.752C43.3567 79.1627 42.9621 79.4933 42.5194 79.744C42.0821 79.9893 41.5754 80.112 40.9994 80.112C40.5354 80.112 40.1141 80.0213 39.7354 79.84C39.3621 79.6587 39.0421 79.3947 38.7754 79.048C38.5087 78.696 38.3034 78.2613 38.1594 77.744C38.0154 77.2267 37.9434 76.632 37.9434 75.96C37.9434 75.3573 38.0234 74.7973 38.1834 74.28C38.3434 73.7627 38.5754 73.3147 38.8794 72.936C39.1834 72.5573 39.5514 72.2613 39.9834 72.048C40.4154 71.8293 40.9034 71.72 41.4474 71.72C41.9381 71.72 42.3541 71.8 42.6954 71.96C43.0421 72.12 43.3514 72.3467 43.6234 72.64V68.192H45.1914ZM54.1278 71.872V80H53.1918C52.9784 80 52.8398 79.896 52.7758 79.688L52.6638 78.872C52.4878 79.0587 52.3038 79.2293 52.1118 79.384C51.9198 79.5387 51.7144 79.672 51.4958 79.784C51.2771 79.8907 51.0451 79.9733 50.7998 80.032C50.5544 80.096 50.2904 80.128 50.0078 80.128C49.5598 80.128 49.1651 80.0533 48.8238 79.904C48.4878 79.7547 48.2051 79.5467 47.9758 79.28C47.7464 79.008 47.5731 78.6827 47.4558 78.304C47.3384 77.9253 47.2798 77.5067 47.2798 77.048V71.872H48.8478V77.048C48.8478 77.6293 48.9811 78.0827 49.2478 78.408C49.5144 78.728 49.9224 78.888 50.4718 78.888C50.8718 78.888 51.2451 78.7947 51.5918 78.608C51.9384 78.416 52.2638 78.1547 52.5678 77.824V71.872H54.1278ZM57.9053 68.192V80H56.3373V68.192H57.9053ZM65.5174 75.032C65.5174 74.7227 65.4721 74.4373 65.3814 74.176C65.2961 73.9147 65.1681 73.688 64.9974 73.496C64.8267 73.304 64.6187 73.1547 64.3734 73.048C64.1281 72.9413 63.8454 72.888 63.5254 72.888C62.8694 72.888 62.3521 73.0773 61.9734 73.456C61.6001 73.8347 61.3627 74.36 61.2614 75.032H65.5174ZM66.8054 78.84C66.6134 79.064 66.3921 79.2587 66.1414 79.424C65.8907 79.584 65.6241 79.7147 65.3414 79.816C65.0587 79.9173 64.7654 79.992 64.4614 80.04C64.1627 80.088 63.8667 80.112 63.5734 80.112C63.0134 80.112 62.4934 80.0187 62.0134 79.832C61.5387 79.64 61.1254 79.3627 60.7734 79C60.4267 78.632 60.1547 78.1787 59.9574 77.64C59.7654 77.096 59.6694 76.472 59.6694 75.768C59.6694 75.2027 59.7574 74.6773 59.9334 74.192C60.1094 73.7013 60.3601 73.2747 60.6854 72.912C61.0161 72.5493 61.4187 72.264 61.8934 72.056C62.3681 71.848 62.9014 71.744 63.4934 71.744C63.9894 71.744 64.4454 71.8267 64.8614 71.992C65.2827 72.152 65.6454 72.3867 65.9494 72.696C66.2534 73.0053 66.4907 73.3867 66.6614 73.84C66.8374 74.2933 66.9254 74.8107 66.9254 75.392C66.9254 75.632 66.8987 75.7947 66.8454 75.88C66.7921 75.96 66.6934 76 66.5494 76H61.2214C61.2374 76.4853 61.3067 76.9093 61.4294 77.272C61.5521 77.6293 61.7201 77.928 61.9334 78.168C62.1521 78.408 62.4107 78.5867 62.7094 78.704C63.0081 78.8213 63.3414 78.88 63.7094 78.88C64.0561 78.88 64.3547 78.84 64.6054 78.76C64.8614 78.68 65.0801 78.5947 65.2614 78.504C65.4481 78.408 65.6027 78.32 65.7254 78.24C65.8534 78.16 65.9654 78.12 66.0614 78.12C66.1894 78.12 66.2881 78.168 66.3574 78.264L66.8054 78.84Z" fill="white"/>
<path d="M60.5417 29C60.5417 42.5306 49.5637 53.5 36.0208 53.5C22.478 53.5 11.5 42.5306 11.5 29C11.5 15.4694 22.478 4.5 36.0208 4.5C49.5637 4.5 60.5417 15.4694 60.5417 29Z" stroke="#E81E2A"/>
<path d="M129.485 73.536C129.581 73.536 129.664 73.5733 129.733 73.648L130.405 74.384C129.936 74.9387 129.363 75.368 128.685 75.672C128.013 75.976 127.203 76.128 126.253 76.128C125.421 76.128 124.667 75.984 123.989 75.696C123.317 75.408 122.741 75.0053 122.261 74.488C121.787 73.9707 121.419 73.352 121.157 72.632C120.896 71.912 120.765 71.12 120.765 70.256C120.765 69.392 120.901 68.6 121.173 67.88C121.451 67.16 121.837 66.5413 122.333 66.024C122.829 65.5067 123.421 65.104 124.109 64.816C124.803 64.528 125.568 64.384 126.405 64.384C127.221 64.384 127.947 64.5173 128.581 64.784C129.216 65.0507 129.768 65.4053 130.237 65.848L129.677 66.64C129.64 66.6987 129.592 66.7467 129.533 66.784C129.48 66.8213 129.408 66.84 129.317 66.84C129.216 66.84 129.096 66.7893 128.957 66.688C128.824 66.5867 128.645 66.4747 128.421 66.352C128.203 66.224 127.931 66.1093 127.605 66.008C127.28 65.9067 126.875 65.856 126.389 65.856C125.819 65.856 125.296 65.9573 124.821 66.16C124.347 66.3573 123.936 66.6453 123.589 67.024C123.248 67.3973 122.981 67.8587 122.789 68.408C122.603 68.952 122.509 69.568 122.509 70.256C122.509 70.9547 122.608 71.576 122.805 72.12C123.003 72.664 123.275 73.1253 123.621 73.504C123.968 73.8827 124.376 74.1707 124.845 74.368C125.315 74.5653 125.821 74.664 126.365 74.664C126.696 74.664 126.992 74.6453 127.253 74.608C127.52 74.5653 127.763 74.504 127.981 74.424C128.205 74.344 128.416 74.2427 128.613 74.12C128.811 73.992 129.005 73.84 129.197 73.664C129.24 73.6267 129.285 73.5973 129.333 73.576C129.381 73.5493 129.432 73.536 129.485 73.536ZM135.105 67.744C135.703 67.744 136.241 67.8427 136.721 68.04C137.207 68.232 137.617 68.512 137.953 68.88C138.295 69.2427 138.556 69.6827 138.737 70.2C138.919 70.712 139.009 71.288 139.009 71.928C139.009 72.568 138.919 73.1467 138.737 73.664C138.556 74.1813 138.295 74.6213 137.953 74.984C137.617 75.3467 137.207 75.6267 136.721 75.824C136.241 76.016 135.703 76.112 135.105 76.112C134.503 76.112 133.959 76.016 133.473 75.824C132.993 75.6267 132.583 75.3467 132.241 74.984C131.9 74.6213 131.636 74.1813 131.449 73.664C131.268 73.1467 131.177 72.568 131.177 71.928C131.177 71.288 131.268 70.712 131.449 70.2C131.636 69.6827 131.9 69.2427 132.241 68.88C132.583 68.512 132.993 68.232 133.473 68.04C133.959 67.8427 134.503 67.744 135.105 67.744ZM135.105 74.896C135.873 74.896 136.447 74.6373 136.825 74.12C137.204 73.6027 137.393 72.8747 137.393 71.936C137.393 70.9973 137.204 70.2693 136.825 69.752C136.447 69.2293 135.873 68.968 135.105 68.968C134.327 68.968 133.745 69.2293 133.361 69.752C132.983 70.2693 132.793 70.9973 132.793 71.936C132.793 72.8747 132.983 73.6027 133.361 74.12C133.745 74.6373 134.327 74.896 135.105 74.896ZM142.215 69C142.391 68.8133 142.575 68.6427 142.767 68.488C142.959 68.3333 143.161 68.2027 143.375 68.096C143.593 67.984 143.825 67.8987 144.071 67.84C144.321 67.776 144.588 67.744 144.871 67.744C145.319 67.744 145.711 67.8187 146.047 67.968C146.388 68.1173 146.673 68.328 146.903 68.6C147.132 68.8667 147.305 69.1893 147.423 69.568C147.54 69.9467 147.599 70.3653 147.599 70.824V76H146.031V70.824C146.031 70.2427 145.897 69.792 145.631 69.472C145.364 69.1467 144.956 68.984 144.407 68.984C144.007 68.984 143.631 69.08 143.279 69.272C142.932 69.4587 142.609 69.7147 142.311 70.04V76H140.751V67.872H141.687C141.905 67.872 142.041 67.976 142.095 68.184L142.215 69ZM154.496 69.272C154.453 69.3413 154.408 69.392 154.36 69.424C154.312 69.4507 154.25 69.464 154.176 69.464C154.09 69.464 153.994 69.4347 153.888 69.376C153.786 69.3173 153.661 69.2533 153.512 69.184C153.368 69.1147 153.197 69.0507 153 68.992C152.802 68.9333 152.568 68.904 152.296 68.904C152.072 68.904 151.866 68.9333 151.68 68.992C151.498 69.0453 151.344 69.1227 151.216 69.224C151.088 69.32 150.989 69.4373 150.92 69.576C150.85 69.7093 150.816 69.8533 150.816 70.008C150.816 70.2107 150.874 70.3787 150.992 70.512C151.114 70.6453 151.272 70.76 151.464 70.856C151.661 70.952 151.882 71.04 152.128 71.12C152.378 71.1947 152.632 71.2747 152.888 71.36C153.149 71.4453 153.402 71.544 153.648 71.656C153.898 71.7627 154.12 71.8987 154.312 72.064C154.509 72.224 154.666 72.4187 154.784 72.648C154.906 72.8773 154.968 73.1573 154.968 73.488C154.968 73.8667 154.898 74.2187 154.76 74.544C154.626 74.864 154.426 75.1413 154.16 75.376C153.898 75.6107 153.573 75.7947 153.184 75.928C152.794 76.0613 152.349 76.128 151.848 76.128C151.288 76.128 150.77 76.0347 150.296 75.848C149.821 75.6613 149.424 75.424 149.104 75.136L149.472 74.536C149.514 74.4613 149.568 74.4053 149.632 74.368C149.696 74.3253 149.781 74.304 149.888 74.304C149.989 74.304 150.093 74.3413 150.2 74.416C150.306 74.4907 150.434 74.5733 150.584 74.664C150.733 74.7493 150.914 74.8293 151.128 74.904C151.341 74.9733 151.608 75.008 151.928 75.008C152.194 75.008 152.426 74.976 152.624 74.912C152.821 74.8427 152.984 74.752 153.112 74.64C153.245 74.5227 153.344 74.3893 153.408 74.24C153.472 74.0907 153.504 73.9333 153.504 73.768C153.504 73.5547 153.442 73.3787 153.32 73.24C153.202 73.096 153.045 72.9733 152.848 72.872C152.656 72.7707 152.434 72.6827 152.184 72.608C151.933 72.5333 151.677 72.4533 151.416 72.368C151.154 72.2827 150.898 72.184 150.648 72.072C150.397 71.96 150.173 71.8187 149.976 71.648C149.784 71.4773 149.626 71.2693 149.504 71.024C149.386 70.7787 149.328 70.48 149.328 70.128C149.328 69.8133 149.392 69.512 149.52 69.224C149.653 68.936 149.842 68.6827 150.088 68.464C150.338 68.2453 150.645 68.072 151.008 67.944C151.376 67.8107 151.794 67.744 152.264 67.744C152.802 67.744 153.288 67.8293 153.72 68C154.157 68.1707 154.53 68.4053 154.84 68.704L154.496 69.272ZM163.417 67.872V76H162.481C162.268 76 162.129 75.896 162.065 75.688L161.953 74.872C161.777 75.0587 161.593 75.2293 161.401 75.384C161.209 75.5387 161.004 75.672 160.785 75.784C160.566 75.8907 160.334 75.9733 160.089 76.032C159.844 76.096 159.58 76.128 159.297 76.128C158.849 76.128 158.454 76.0533 158.113 75.904C157.777 75.7547 157.494 75.5467 157.265 75.28C157.036 75.008 156.862 74.6827 156.745 74.304C156.628 73.9253 156.569 73.5067 156.569 73.048V67.872H158.137V73.048C158.137 73.6293 158.27 74.0827 158.537 74.408C158.804 74.728 159.212 74.888 159.761 74.888C160.161 74.888 160.534 74.7947 160.881 74.608C161.228 74.416 161.553 74.1547 161.857 73.824V67.872H163.417ZM167.194 64.192V76H165.626V64.192H167.194ZM171.967 76.128C171.311 76.128 170.804 75.944 170.447 75.576C170.095 75.208 169.919 74.6827 169.919 74V69.136H168.975C168.884 69.136 168.807 69.1093 168.743 69.056C168.684 68.9973 168.655 68.912 168.655 68.8V68.168L169.975 67.984L170.327 65.56C170.348 65.4693 170.388 65.4 170.447 65.352C170.511 65.2987 170.591 65.272 170.687 65.272H171.479V68H173.783V69.136H171.479V73.896C171.479 74.216 171.556 74.456 171.711 74.616C171.871 74.7707 172.073 74.848 172.319 74.848C172.463 74.848 172.585 74.8293 172.687 74.792C172.793 74.7547 172.884 74.7147 172.959 74.672C173.033 74.624 173.097 74.5813 173.151 74.544C173.204 74.5067 173.252 74.488 173.295 74.488C173.348 74.488 173.388 74.5013 173.415 74.528C173.447 74.5493 173.479 74.5867 173.511 74.64L173.975 75.392C173.719 75.6267 173.415 75.808 173.063 75.936C172.711 76.064 172.345 76.128 171.967 76.128ZM179.587 72.392C178.953 72.4133 178.414 72.464 177.971 72.544C177.529 72.6187 177.169 72.72 176.891 72.848C176.614 72.976 176.414 73.128 176.291 73.304C176.169 73.4747 176.107 73.6667 176.107 73.88C176.107 74.0827 176.139 74.2587 176.203 74.408C176.273 74.552 176.363 74.672 176.475 74.768C176.593 74.8587 176.729 74.9253 176.883 74.968C177.038 75.0107 177.206 75.032 177.387 75.032C177.627 75.032 177.846 75.008 178.043 74.96C178.246 74.912 178.435 74.8453 178.611 74.76C178.787 74.6693 178.955 74.56 179.115 74.432C179.275 74.304 179.433 74.1573 179.587 73.992V72.392ZM175.011 69.008C175.465 68.576 175.955 68.2533 176.483 68.04C177.017 67.8267 177.601 67.72 178.235 67.72C178.699 67.72 179.11 67.7973 179.467 67.952C179.825 68.1013 180.126 68.312 180.371 68.584C180.617 68.856 180.801 69.1813 180.923 69.56C181.051 69.9387 181.115 70.3573 181.115 70.816V76H180.419C180.265 76 180.147 75.976 180.067 75.928C179.987 75.8747 179.923 75.7787 179.875 75.64L179.707 74.928C179.499 75.12 179.294 75.2907 179.091 75.44C178.889 75.584 178.675 75.7093 178.451 75.816C178.233 75.9173 177.998 75.9947 177.747 76.048C177.497 76.1013 177.219 76.128 176.915 76.128C176.595 76.128 176.294 76.0853 176.011 76C175.734 75.9093 175.491 75.7733 175.283 75.592C175.075 75.4107 174.91 75.184 174.787 74.912C174.67 74.64 174.611 74.3227 174.611 73.96C174.611 73.64 174.697 73.3333 174.867 73.04C175.043 72.7413 175.326 72.4747 175.715 72.24C176.11 72.0053 176.622 71.8133 177.251 71.664C177.886 71.5147 178.665 71.4293 179.587 71.408V70.816C179.587 70.2027 179.457 69.744 179.195 69.44C178.934 69.136 178.55 68.984 178.043 68.984C177.702 68.984 177.414 69.0267 177.179 69.112C176.95 69.1973 176.75 69.2933 176.579 69.4C176.414 69.5013 176.267 69.5947 176.139 69.68C176.017 69.7653 175.889 69.808 175.755 69.808C175.649 69.808 175.555 69.7787 175.475 69.72C175.401 69.6613 175.339 69.592 175.291 69.512L175.011 69.008ZM190.798 76H189.23V69.136H185.15V73.896C185.15 74.216 185.228 74.456 185.382 74.616C185.542 74.7707 185.745 74.848 185.99 74.848C186.134 74.848 186.257 74.8293 186.358 74.792C186.465 74.7547 186.556 74.7147 186.63 74.672C186.705 74.624 186.769 74.5813 186.822 74.544C186.876 74.5067 186.924 74.488 186.966 74.488C187.02 74.488 187.06 74.5013 187.086 74.528C187.118 74.5493 187.15 74.5867 187.182 74.64L187.646 75.392C187.39 75.6267 187.086 75.808 186.734 75.936C186.382 76.064 186.017 76.128 185.638 76.128C184.982 76.128 184.476 75.944 184.118 75.576C183.766 75.208 183.59 74.6827 183.59 74V69.136H182.646C182.556 69.136 182.478 69.1093 182.414 69.056C182.356 68.9973 182.326 68.912 182.326 68.8V68.168L183.654 67.984L183.998 65.56C184.02 65.4693 184.06 65.4 184.118 65.352C184.182 65.2987 184.262 65.272 184.358 65.272H185.15V68H190.798V76ZM191.15 65.312C191.15 65.456 191.121 65.5947 191.062 65.728C191.004 65.856 190.924 65.9707 190.822 66.072C190.726 66.168 190.612 66.2453 190.478 66.304C190.345 66.3573 190.206 66.384 190.062 66.384C189.918 66.384 189.782 66.3573 189.654 66.304C189.526 66.2453 189.412 66.168 189.31 66.072C189.214 65.9707 189.137 65.856 189.078 65.728C189.025 65.5947 188.998 65.456 188.998 65.312C188.998 65.1627 189.025 65.0213 189.078 64.888C189.137 64.7547 189.214 64.64 189.31 64.544C189.412 64.4427 189.526 64.3653 189.654 64.312C189.782 64.2533 189.918 64.224 190.062 64.224C190.206 64.224 190.345 64.2533 190.478 64.312C190.612 64.3653 190.726 64.4427 190.822 64.544C190.924 64.64 191.004 64.7547 191.062 64.888C191.121 65.0213 191.15 65.1627 191.15 65.312ZM196.527 67.744C197.125 67.744 197.663 67.8427 198.143 68.04C198.629 68.232 199.039 68.512 199.375 68.88C199.717 69.2427 199.978 69.6827 200.159 70.2C200.341 70.712 200.431 71.288 200.431 71.928C200.431 72.568 200.341 73.1467 200.159 73.664C199.978 74.1813 199.717 74.6213 199.375 74.984C199.039 75.3467 198.629 75.6267 198.143 75.824C197.663 76.016 197.125 76.112 196.527 76.112C195.925 76.112 195.381 76.016 194.895 75.824C194.415 75.6267 194.005 75.3467 193.663 74.984C193.322 74.6213 193.058 74.1813 192.871 73.664C192.69 73.1467 192.599 72.568 192.599 71.928C192.599 71.288 192.69 70.712 192.871 70.2C193.058 69.6827 193.322 69.2427 193.663 68.88C194.005 68.512 194.415 68.232 194.895 68.04C195.381 67.8427 195.925 67.744 196.527 67.744ZM196.527 74.896C197.295 74.896 197.869 74.6373 198.247 74.12C198.626 73.6027 198.815 72.8747 198.815 71.936C198.815 70.9973 198.626 70.2693 198.247 69.752C197.869 69.2293 197.295 68.968 196.527 68.968C195.749 68.968 195.167 69.2293 194.783 69.752C194.405 70.2693 194.215 70.9973 194.215 71.936C194.215 72.8747 194.405 73.6027 194.783 74.12C195.167 74.6373 195.749 74.896 196.527 74.896ZM203.637 69C203.813 68.8133 203.997 68.6427 204.189 68.488C204.381 68.3333 204.583 68.2027 204.797 68.096C205.015 67.984 205.247 67.8987 205.493 67.84C205.743 67.776 206.01 67.744 206.293 67.744C206.741 67.744 207.133 67.8187 207.469 67.968C207.81 68.1173 208.095 68.328 208.325 68.6C208.554 68.8667 208.727 69.1893 208.845 69.568C208.962 69.9467 209.021 70.3653 209.021 70.824V76H207.453V70.824C207.453 70.2427 207.319 69.792 207.053 69.472C206.786 69.1467 206.378 68.984 205.829 68.984C205.429 68.984 205.053 69.08 204.701 69.272C204.354 69.4587 204.031 69.7147 203.733 70.04V76H202.173V67.872H203.109C203.327 67.872 203.463 67.976 203.517 68.184L203.637 69Z" fill="white"/>
<path d="M189.542 25C189.542 38.5306 178.564 49.5 165.021 49.5C151.478 49.5 140.5 38.5306 140.5 25C140.5 11.4694 151.478 0.5 165.021 0.5C178.564 0.5 189.542 11.4694 189.542 25Z" stroke="#E81E2A"/>
<path d="M13.3984 187.616L13.3904 189H6.27038V177.512H13.3904V178.896H7.98238V182.536H12.3344V183.872H7.98238V187.616H13.3984ZM19.8518 182.272C19.8091 182.341 19.7638 182.392 19.7158 182.424C19.6678 182.451 19.6064 182.464 19.5318 182.464C19.4464 182.464 19.3504 182.435 19.2438 182.376C19.1424 182.317 19.0171 182.253 18.8678 182.184C18.7238 182.115 18.5531 182.051 18.3558 181.992C18.1584 181.933 17.9238 181.904 17.6518 181.904C17.4278 181.904 17.2224 181.933 17.0358 181.992C16.8544 182.045 16.6998 182.123 16.5718 182.224C16.4438 182.32 16.3451 182.437 16.2758 182.576C16.2064 182.709 16.1718 182.853 16.1718 183.008C16.1718 183.211 16.2304 183.379 16.3478 183.512C16.4704 183.645 16.6278 183.76 16.8198 183.856C17.0171 183.952 17.2384 184.04 17.4838 184.12C17.7344 184.195 17.9878 184.275 18.2438 184.36C18.5051 184.445 18.7584 184.544 19.0038 184.656C19.2544 184.763 19.4758 184.899 19.6678 185.064C19.8651 185.224 20.0224 185.419 20.1398 185.648C20.2624 185.877 20.3238 186.157 20.3238 186.488C20.3238 186.867 20.2544 187.219 20.1158 187.544C19.9824 187.864 19.7824 188.141 19.5158 188.376C19.2544 188.611 18.9291 188.795 18.5398 188.928C18.1504 189.061 17.7051 189.128 17.2038 189.128C16.6438 189.128 16.1264 189.035 15.6518 188.848C15.1771 188.661 14.7798 188.424 14.4598 188.136L14.8278 187.536C14.8704 187.461 14.9238 187.405 14.9878 187.368C15.0518 187.325 15.1371 187.304 15.2438 187.304C15.3451 187.304 15.4491 187.341 15.5558 187.416C15.6624 187.491 15.7904 187.573 15.9398 187.664C16.0891 187.749 16.2704 187.829 16.4838 187.904C16.6971 187.973 16.9638 188.008 17.2838 188.008C17.5504 188.008 17.7824 187.976 17.9798 187.912C18.1771 187.843 18.3398 187.752 18.4678 187.64C18.6011 187.523 18.6998 187.389 18.7638 187.24C18.8278 187.091 18.8598 186.933 18.8598 186.768C18.8598 186.555 18.7984 186.379 18.6758 186.24C18.5584 186.096 18.4011 185.973 18.2038 185.872C18.0118 185.771 17.7904 185.683 17.5398 185.608C17.2891 185.533 17.0331 185.453 16.7718 185.368C16.5104 185.283 16.2544 185.184 16.0038 185.072C15.7531 184.96 15.5291 184.819 15.3318 184.648C15.1398 184.477 14.9824 184.269 14.8598 184.024C14.7424 183.779 14.6838 183.48 14.6838 183.128C14.6838 182.813 14.7478 182.512 14.8758 182.224C15.0091 181.936 15.1984 181.683 15.4438 181.464C15.6944 181.245 16.0011 181.072 16.3638 180.944C16.7318 180.811 17.1504 180.744 17.6198 180.744C18.1584 180.744 18.6438 180.829 19.0758 181C19.5131 181.171 19.8864 181.405 20.1958 181.704L19.8518 182.272ZM29.7169 189H28.1489V182.136H24.0689V186.896C24.0689 187.216 24.1462 187.456 24.3009 187.616C24.4609 187.771 24.6635 187.848 24.9089 187.848C25.0529 187.848 25.1755 187.829 25.2769 187.792C25.3835 187.755 25.4742 187.715 25.5489 187.672C25.6235 187.624 25.6875 187.581 25.7409 187.544C25.7942 187.507 25.8422 187.488 25.8849 187.488C25.9382 187.488 25.9782 187.501 26.0049 187.528C26.0369 187.549 26.0689 187.587 26.1009 187.64L26.5649 188.392C26.3089 188.627 26.0049 188.808 25.6529 188.936C25.3009 189.064 24.9355 189.128 24.5569 189.128C23.9009 189.128 23.3942 188.944 23.0369 188.576C22.6849 188.208 22.5089 187.683 22.5089 187V182.136H21.5649C21.4742 182.136 21.3969 182.109 21.3329 182.056C21.2742 181.997 21.2449 181.912 21.2449 181.8V181.168L22.5729 180.984L22.9169 178.56C22.9382 178.469 22.9782 178.4 23.0369 178.352C23.1009 178.299 23.1809 178.272 23.2769 178.272H24.0689V181H29.7169V189ZM30.0689 178.312C30.0689 178.456 30.0395 178.595 29.9809 178.728C29.9222 178.856 29.8422 178.971 29.7409 179.072C29.6449 179.168 29.5302 179.245 29.3969 179.304C29.2635 179.357 29.1249 179.384 28.9809 179.384C28.8369 179.384 28.7009 179.357 28.5729 179.304C28.4449 179.245 28.3302 179.168 28.2289 179.072C28.1329 178.971 28.0555 178.856 27.9969 178.728C27.9435 178.595 27.9169 178.456 27.9169 178.312C27.9169 178.163 27.9435 178.021 27.9969 177.888C28.0555 177.755 28.1329 177.64 28.2289 177.544C28.3302 177.443 28.4449 177.365 28.5729 177.312C28.7009 177.253 28.8369 177.224 28.9809 177.224C29.1249 177.224 29.2635 177.253 29.3969 177.312C29.5302 177.365 29.6449 177.443 29.7409 177.544C29.8422 177.64 29.9222 177.755 29.9809 177.888C30.0395 178.021 30.0689 178.163 30.0689 178.312ZM31.9816 189V180.872H32.9176C33.1363 180.872 33.2723 180.976 33.3256 181.184L33.4376 181.96C33.7363 181.603 34.067 181.312 34.4296 181.088C34.7976 180.859 35.227 180.744 35.7176 180.744C36.2563 180.744 36.6936 180.893 37.0296 181.192C37.3656 181.485 37.611 181.885 37.7656 182.392C37.883 182.104 38.035 181.856 38.2216 181.648C38.4083 181.44 38.6163 181.269 38.8456 181.136C39.075 181.003 39.3176 180.904 39.5736 180.84C39.835 180.776 40.099 180.744 40.3656 180.744C40.7976 180.744 41.1816 180.813 41.5176 180.952C41.859 181.085 42.147 181.283 42.3816 181.544C42.6163 181.805 42.795 182.128 42.9176 182.512C43.0403 182.896 43.1016 183.333 43.1016 183.824V189H41.5336V183.824C41.5336 183.216 41.4003 182.757 41.1336 182.448C40.8723 182.139 40.4883 181.984 39.9816 181.984C39.7576 181.984 39.5443 182.024 39.3416 182.104C39.139 182.179 38.9603 182.293 38.8056 182.448C38.6563 182.603 38.5363 182.795 38.4456 183.024C38.3603 183.253 38.3176 183.52 38.3176 183.824V189H36.7496V183.824C36.7496 183.195 36.6243 182.731 36.3736 182.432C36.123 182.133 35.755 181.984 35.2696 181.984C34.9336 181.984 34.6216 182.072 34.3336 182.248C34.0456 182.424 33.7816 182.664 33.5416 182.968V189H31.9816ZM49.5684 185.392C48.9337 185.413 48.395 185.464 47.9524 185.544C47.5097 185.619 47.1497 185.72 46.8724 185.848C46.595 185.976 46.395 186.128 46.2724 186.304C46.1497 186.475 46.0884 186.667 46.0884 186.88C46.0884 187.083 46.1204 187.259 46.1844 187.408C46.2537 187.552 46.3444 187.672 46.4564 187.768C46.5737 187.859 46.7097 187.925 46.8644 187.968C47.019 188.011 47.187 188.032 47.3684 188.032C47.6084 188.032 47.827 188.008 48.0244 187.96C48.227 187.912 48.4164 187.845 48.5924 187.76C48.7684 187.669 48.9364 187.56 49.0964 187.432C49.2564 187.304 49.4137 187.157 49.5684 186.992V185.392ZM44.9924 182.008C45.4457 181.576 45.9364 181.253 46.4644 181.04C46.9977 180.827 47.5817 180.72 48.2164 180.72C48.6804 180.72 49.091 180.797 49.4484 180.952C49.8057 181.101 50.107 181.312 50.3524 181.584C50.5977 181.856 50.7817 182.181 50.9044 182.56C51.0324 182.939 51.0964 183.357 51.0964 183.816V189H50.4004C50.2457 189 50.1284 188.976 50.0484 188.928C49.9684 188.875 49.9044 188.779 49.8564 188.64L49.6884 187.928C49.4804 188.12 49.275 188.291 49.0724 188.44C48.8697 188.584 48.6564 188.709 48.4324 188.816C48.2137 188.917 47.979 188.995 47.7284 189.048C47.4777 189.101 47.2004 189.128 46.8964 189.128C46.5764 189.128 46.275 189.085 45.9924 189C45.715 188.909 45.4724 188.773 45.2644 188.592C45.0564 188.411 44.891 188.184 44.7684 187.912C44.651 187.64 44.5924 187.323 44.5924 186.96C44.5924 186.64 44.6777 186.333 44.8484 186.04C45.0244 185.741 45.307 185.475 45.6964 185.24C46.091 185.005 46.603 184.813 47.2324 184.664C47.867 184.515 48.6457 184.429 49.5684 184.408V183.816C49.5684 183.203 49.4377 182.744 49.1764 182.44C48.915 182.136 48.531 181.984 48.0244 181.984C47.683 181.984 47.395 182.027 47.1604 182.112C46.931 182.197 46.731 182.293 46.5604 182.4C46.395 182.501 46.2484 182.595 46.1204 182.68C45.9977 182.765 45.8697 182.808 45.7364 182.808C45.6297 182.808 45.5364 182.779 45.4564 182.72C45.3817 182.661 45.3204 182.592 45.2724 182.512L44.9924 182.008ZM55.6194 189.128C54.9634 189.128 54.4567 188.944 54.0994 188.576C53.7474 188.208 53.5714 187.683 53.5714 187V182.136H52.6274C52.5367 182.136 52.4594 182.109 52.3954 182.056C52.3367 181.997 52.3074 181.912 52.3074 181.8V181.168L53.6274 180.984L53.9794 178.56C54.0007 178.469 54.0407 178.4 54.0994 178.352C54.1634 178.299 54.2434 178.272 54.3394 178.272H55.1314V181H57.4354V182.136H55.1314V186.896C55.1314 187.216 55.2087 187.456 55.3634 187.616C55.5234 187.771 55.726 187.848 55.9714 187.848C56.1154 187.848 56.238 187.829 56.3394 187.792C56.446 187.755 56.5367 187.715 56.6114 187.672C56.686 187.624 56.75 187.581 56.8034 187.544C56.8567 187.507 56.9047 187.488 56.9474 187.488C57.0007 187.488 57.0407 187.501 57.0674 187.528C57.0994 187.549 57.1314 187.587 57.1634 187.64L57.6274 188.392C57.3714 188.627 57.0674 188.808 56.7154 188.936C56.3634 189.064 55.998 189.128 55.6194 189.128ZM64.2094 184.032C64.2094 183.723 64.164 183.437 64.0734 183.176C63.988 182.915 63.86 182.688 63.6894 182.496C63.5187 182.304 63.3107 182.155 63.0654 182.048C62.82 181.941 62.5374 181.888 62.2174 181.888C61.5614 181.888 61.044 182.077 60.6654 182.456C60.292 182.835 60.0547 183.36 59.9534 184.032H64.2094ZM65.4974 187.84C65.3054 188.064 65.084 188.259 64.8334 188.424C64.5827 188.584 64.316 188.715 64.0334 188.816C63.7507 188.917 63.4574 188.992 63.1534 189.04C62.8547 189.088 62.5587 189.112 62.2654 189.112C61.7054 189.112 61.1854 189.019 60.7054 188.832C60.2307 188.64 59.8174 188.363 59.4654 188C59.1187 187.632 58.8467 187.179 58.6494 186.64C58.4574 186.096 58.3614 185.472 58.3614 184.768C58.3614 184.203 58.4494 183.677 58.6254 183.192C58.8014 182.701 59.052 182.275 59.3774 181.912C59.708 181.549 60.1107 181.264 60.5854 181.056C61.06 180.848 61.5934 180.744 62.1854 180.744C62.6814 180.744 63.1374 180.827 63.5534 180.992C63.9747 181.152 64.3374 181.387 64.6414 181.696C64.9454 182.005 65.1827 182.387 65.3534 182.84C65.5294 183.293 65.6174 183.811 65.6174 184.392C65.6174 184.632 65.5907 184.795 65.5374 184.88C65.484 184.96 65.3854 185 65.2414 185H59.9134C59.9294 185.485 59.9987 185.909 60.1214 186.272C60.244 186.629 60.412 186.928 60.6254 187.168C60.844 187.408 61.1027 187.587 61.4014 187.704C61.7 187.821 62.0334 187.88 62.4014 187.88C62.748 187.88 63.0467 187.84 63.2974 187.76C63.5534 187.68 63.772 187.595 63.9534 187.504C64.14 187.408 64.2947 187.32 64.4174 187.24C64.5454 187.16 64.6574 187.12 64.7534 187.12C64.8814 187.12 64.98 187.168 65.0494 187.264L65.4974 187.84Z" fill="white"/>
<path d="M60.5417 138C60.5417 151.531 49.5637 162.5 36.0208 162.5C22.478 162.5 11.5 151.531 11.5 138C11.5 124.469 22.478 113.5 36.0208 113.5C49.5637 113.5 60.5417 124.469 60.5417 138Z" stroke="#E81E2A"/>
<path d="M147.498 183.256C147.498 184.115 147.359 184.896 147.082 185.6C146.81 186.304 146.423 186.909 145.922 187.416C145.42 187.917 144.82 188.307 144.122 188.584C143.423 188.861 142.647 189 141.794 189H137.474V177.512H141.794C142.647 177.512 143.423 177.651 144.122 177.928C144.82 178.205 145.42 178.597 145.922 179.104C146.423 179.605 146.81 180.211 147.082 180.92C147.359 181.624 147.498 182.403 147.498 183.256ZM145.754 183.256C145.754 182.573 145.66 181.963 145.474 181.424C145.287 180.88 145.02 180.421 144.674 180.048C144.332 179.669 143.916 179.381 143.426 179.184C142.94 178.987 142.396 178.888 141.794 178.888H139.186V187.624H141.794C142.396 187.624 142.94 187.525 143.426 187.328C143.916 187.131 144.332 186.845 144.674 186.472C145.02 186.093 145.287 185.635 145.474 185.096C145.66 184.557 145.754 183.944 145.754 183.256ZM154.6 184.032C154.6 183.723 154.555 183.437 154.464 183.176C154.379 182.915 154.251 182.688 154.08 182.496C153.909 182.304 153.701 182.155 153.456 182.048C153.211 181.941 152.928 181.888 152.608 181.888C151.952 181.888 151.435 182.077 151.056 182.456C150.683 182.835 150.445 183.36 150.344 184.032H154.6ZM155.888 187.84C155.696 188.064 155.475 188.259 155.224 188.424C154.973 188.584 154.707 188.715 154.424 188.816C154.141 188.917 153.848 188.992 153.544 189.04C153.245 189.088 152.949 189.112 152.656 189.112C152.096 189.112 151.576 189.019 151.096 188.832C150.621 188.64 150.208 188.363 149.856 188C149.509 187.632 149.237 187.179 149.04 186.64C148.848 186.096 148.752 185.472 148.752 184.768C148.752 184.203 148.84 183.677 149.016 183.192C149.192 182.701 149.443 182.275 149.768 181.912C150.099 181.549 150.501 181.264 150.976 181.056C151.451 180.848 151.984 180.744 152.576 180.744C153.072 180.744 153.528 180.827 153.944 180.992C154.365 181.152 154.728 181.387 155.032 181.696C155.336 182.005 155.573 182.387 155.744 182.84C155.92 183.293 156.008 183.811 156.008 184.392C156.008 184.632 155.981 184.795 155.928 184.88C155.875 184.96 155.776 185 155.632 185H150.304C150.32 185.485 150.389 185.909 150.512 186.272C150.635 186.629 150.803 186.928 151.016 187.168C151.235 187.408 151.493 187.587 151.792 187.704C152.091 187.821 152.424 187.88 152.792 187.88C153.139 187.88 153.437 187.84 153.688 187.76C153.944 187.68 154.163 187.595 154.344 187.504C154.531 187.408 154.685 187.32 154.808 187.24C154.936 187.16 155.048 187.12 155.144 187.12C155.272 187.12 155.371 187.168 155.44 187.264L155.888 187.84ZM159.285 177.192V189H157.717V177.192H159.285ZM163.145 180.872V189H161.585V180.872H163.145ZM163.441 178.36C163.441 178.504 163.412 178.643 163.353 178.776C163.294 178.904 163.214 179.019 163.113 179.12C163.017 179.216 162.902 179.293 162.769 179.352C162.636 179.405 162.497 179.432 162.353 179.432C162.209 179.432 162.073 179.405 161.945 179.352C161.817 179.293 161.702 179.216 161.601 179.12C161.505 179.019 161.428 178.904 161.369 178.776C161.316 178.643 161.289 178.504 161.289 178.36C161.289 178.211 161.316 178.072 161.369 177.944C161.428 177.811 161.505 177.696 161.601 177.6C161.702 177.499 161.817 177.421 161.945 177.368C162.073 177.309 162.209 177.28 162.353 177.28C162.497 177.28 162.636 177.309 162.769 177.368C162.902 177.421 163.017 177.499 163.113 177.6C163.214 177.696 163.294 177.811 163.353 177.944C163.412 178.072 163.441 178.211 163.441 178.36ZM172.46 180.872L169.164 189H167.756L164.46 180.872H165.748C165.87 180.872 165.972 180.901 166.052 180.96C166.132 181.019 166.185 181.093 166.212 181.184L168.156 186.176C168.225 186.384 168.284 186.592 168.332 186.8C168.385 187.003 168.433 187.205 168.476 187.408C168.518 187.205 168.566 187.003 168.62 186.8C168.673 186.597 168.737 186.389 168.812 186.176L170.78 181.184C170.812 181.093 170.868 181.019 170.948 180.96C171.028 180.901 171.124 180.872 171.236 180.872H172.46ZM178.85 184.032C178.85 183.723 178.805 183.437 178.714 183.176C178.629 182.915 178.501 182.688 178.33 182.496C178.159 182.304 177.951 182.155 177.706 182.048C177.461 181.941 177.178 181.888 176.858 181.888C176.202 181.888 175.685 182.077 175.306 182.456C174.933 182.835 174.695 183.36 174.594 184.032H178.85ZM180.138 187.84C179.946 188.064 179.725 188.259 179.474 188.424C179.223 188.584 178.957 188.715 178.674 188.816C178.391 188.917 178.098 188.992 177.794 189.04C177.495 189.088 177.199 189.112 176.906 189.112C176.346 189.112 175.826 189.019 175.346 188.832C174.871 188.64 174.458 188.363 174.106 188C173.759 187.632 173.487 187.179 173.29 186.64C173.098 186.096 173.002 185.472 173.002 184.768C173.002 184.203 173.09 183.677 173.266 183.192C173.442 182.701 173.693 182.275 174.018 181.912C174.349 181.549 174.751 181.264 175.226 181.056C175.701 180.848 176.234 180.744 176.826 180.744C177.322 180.744 177.778 180.827 178.194 180.992C178.615 181.152 178.978 181.387 179.282 181.696C179.586 182.005 179.823 182.387 179.994 182.84C180.17 183.293 180.258 183.811 180.258 184.392C180.258 184.632 180.231 184.795 180.178 184.88C180.125 184.96 180.026 185 179.882 185H174.554C174.57 185.485 174.639 185.909 174.762 186.272C174.885 186.629 175.053 186.928 175.266 187.168C175.485 187.408 175.743 187.587 176.042 187.704C176.341 187.821 176.674 187.88 177.042 187.88C177.389 187.88 177.687 187.84 177.938 187.76C178.194 187.68 178.413 187.595 178.594 187.504C178.781 187.408 178.935 187.32 179.058 187.24C179.186 187.16 179.298 187.12 179.394 187.12C179.522 187.12 179.621 187.168 179.69 187.264L180.138 187.84ZM183.407 182.432C183.668 181.899 183.983 181.48 184.351 181.176C184.719 180.872 185.161 180.72 185.679 180.72C185.855 180.72 186.02 180.741 186.175 180.784C186.335 180.821 186.473 180.88 186.591 180.96L186.487 182.136C186.449 182.28 186.361 182.352 186.223 182.352C186.148 182.352 186.036 182.339 185.887 182.312C185.737 182.28 185.577 182.264 185.407 182.264C185.156 182.264 184.935 182.301 184.743 182.376C184.551 182.445 184.377 182.552 184.223 182.696C184.073 182.835 183.94 183.008 183.823 183.216C183.705 183.419 183.596 183.651 183.495 183.912V189H181.935V180.872H182.831C183.001 180.872 183.116 180.904 183.175 180.968C183.239 181.027 183.284 181.133 183.311 181.288L183.407 182.432ZM194.898 180.872L190.386 191.36C190.338 191.477 190.274 191.568 190.194 191.632C190.114 191.696 189.997 191.728 189.842 191.728H188.682L190.17 188.488L186.834 180.872H188.194C188.327 180.872 188.431 180.904 188.506 180.968C188.581 181.032 188.634 181.104 188.666 181.184L190.73 186.064C190.773 186.187 190.813 186.312 190.85 186.44C190.893 186.563 190.927 186.685 190.954 186.808C190.991 186.68 191.031 186.555 191.074 186.432C191.117 186.304 191.162 186.179 191.21 186.056L193.202 181.184C193.239 181.093 193.298 181.019 193.378 180.96C193.458 180.901 193.549 180.872 193.65 180.872H194.898Z" fill="white"/>
<path d="M189.542 138C189.542 151.531 178.564 162.5 165.021 162.5C151.478 162.5 140.5 151.531 140.5 138C140.5 124.469 151.478 113.5 165.021 113.5C178.564 113.5 189.542 124.469 189.542 138Z" stroke="#E81E2A"/>
<path d="M160.031 146.882C161.456 146.882 162.611 145.719 162.611 144.284C162.611 142.85 161.456 141.687 160.031 141.687C158.606 141.687 157.45 142.85 157.45 144.284C157.45 145.719 158.606 146.882 160.031 146.882Z" stroke="white" stroke-width="1.5" stroke-miterlimit="1.5" stroke-linecap="round" stroke-linejoin="round"/>
<path d="M172.931 146.882C174.356 146.882 175.511 145.719 175.511 144.284C175.511 142.85 174.356 141.687 172.931 141.687C171.506 141.687 170.351 142.85 170.351 144.284C170.351 145.719 171.506 146.882 172.931 146.882Z" stroke="white" stroke-width="1.5" stroke-miterlimit="1.5" stroke-linecap="round" stroke-linejoin="round"/>
<path d="M162.675 144.284H169.061V130.779C169.061 130.349 168.714 130 168.287 130H151" stroke="white" stroke-width="1.5" stroke-linecap="round"/>
<path d="M156.999 144.285H154.354C153.927 144.285 153.58 143.936 153.58 143.505V137.142" stroke="white" stroke-width="1.5" stroke-linecap="round"/>
<path d="M152.29 133.896H157.45" stroke="white" stroke-width="1.5" stroke-linecap="round" stroke-linejoin="round"/>
<path d="M169.061 133.896H176.298C176.604 133.896 176.881 134.077 177.005 134.358L179.314 139.588C179.358 139.688 179.381 139.796 179.381 139.905V143.505C179.381 143.936 179.035 144.284 178.607 144.284H176.156" stroke="white" stroke-width="1.5" stroke-linecap="round"/>
<path d="M169.061 144.284H170.351" stroke="white" stroke-width="1.5" stroke-linecap="round"/>
<path d="M30.5168 141.047H41.5501" stroke="white" stroke-width="1.5" stroke-linecap="round" stroke-linejoin="round"/>
<path d="M30.5168 135.494H33.2752" stroke="white" stroke-width="1.5" stroke-linecap="round" stroke-linejoin="round"/>
<path d="M30.5168 146.6H36.0335" stroke="white" stroke-width="1.5" stroke-linecap="round" stroke-linejoin="round"/>
<path d="M33.2749 125.777H27.7583C26.2349 125.777 25 127.02 25 128.553V149.377C25 150.911 26.2349 152.154 27.7583 152.154H44.3082C45.8316 152.154 47.0665 150.911 47.0665 149.377V128.553C47.0665 127.02 45.8316 125.777 44.3082 125.777H39.4811M33.2749 125.777V123M33.2749 125.777V128.553" stroke="white" stroke-width="1.5" stroke-linecap="round" stroke-linejoin="round"/>
<path d="M160.445 22.9924H165.409H170.372" stroke="white" stroke-width="1.5" stroke-linecap="round" stroke-linejoin="round"/>
<path d="M160.445 27.9888H162.927H165.409" stroke="white" stroke-width="1.5" stroke-linecap="round" stroke-linejoin="round"/>
<path d="M165.409 37.9812C172.262 37.9812 177.817 32.3889 177.817 25.4906C177.817 18.5922 172.262 13 165.409 13C158.556 13 153 18.5922 153 25.4906C153 27.7657 153.604 29.8987 154.66 31.7359L153.62 37.3567L159.204 36.3102C161.029 37.3729 163.149 37.9812 165.409 37.9812Z" stroke="white" stroke-width="1.5" stroke-linecap="round" stroke-linejoin="round"/>
<path d="M39.2742 20.227V18M39.2742 20.227V22.454M39.2742 20.227H34.2964M26 26.9079V36.9294C26 38.1593 26.9905 39.1563 28.2124 39.1563H43.6989C44.9208 39.1563 45.9113 38.1593 45.9113 36.9294V26.9079H26Z" stroke="white" stroke-width="1.5" stroke-linecap="round" stroke-linejoin="round"/>
<path d="M26 26.908V22.454C26 21.2241 26.9905 20.2271 28.2124 20.2271H30.4247" stroke="white" stroke-width="1.5" stroke-linecap="round" stroke-linejoin="round"/>
<path d="M30.4246 18V22.454" stroke="white" stroke-width="1.5" stroke-linecap="round" stroke-linejoin="round"/>
<path d="M45.9112 26.908V22.454C45.9112 21.2241 44.9207 20.2271 43.6988 20.2271H43.1458" stroke="white" stroke-width="1.5" stroke-linecap="round" stroke-linejoin="round"/>
</svg>
